<?xml version="1.0" encoding="utf-8" standalone="no"?>
<!DOCTYPE svg PUBLIC "-//W3C//DTD SVG 1.1//EN"
  "http://www.w3.org/Graphics/SVG/1.1/DTD/svg11.dtd">
<!-- Created with matplotlib (https://matplotlib.org/) -->
<svg height="345.6pt" version="1.1" viewBox="0 0 460.8 345.6" width="460.8pt" xmlns="http://www.w3.org/2000/svg" xmlns:xlink="http://www.w3.org/1999/xlink">
 <defs>
  <style type="text/css">
*{stroke-linecap:butt;stroke-linejoin:round;white-space:pre;}
  </style>
 </defs>
 <g id="figure_1">
  <g id="patch_1">
   <path d="M 0 345.6 
L 460.8 345.6 
L 460.8 0 
L 0 0 
z
" style="fill:#ffffff;"/>
  </g>
  <g id="axes_1">
   <g id="patch_2">
    <path d="M 57.6 307.584 
L 414.72 307.584 
L 414.72 41.472 
L 57.6 41.472 
z
" style="fill:#ffffff;"/>
   </g>
   <g id="matplotlib.axis_1">
    <g id="xtick_1">
     <g id="line2d_1">
      <defs>
       <path d="M 0 0 
L 0 3.5 
" id="mc9fecb3a74" style="stroke:#000000;stroke-width:0.8;"/>
      </defs>
      <g>
       <use style="stroke:#000000;stroke-width:0.8;" x="57.6" xlink:href="#mc9fecb3a74" y="307.584"/>
      </g>
     </g>
     <g id="text_1">
      <!-- 0.0 -->
      <defs>
       <path d="M 46 36.53125 
Q 46 50.203125 43.4375 55.78125 
Q 40.875 61.375 34.8125 61.375 
Q 28.765625 61.375 26.171875 55.78125 
Q 23.578125 50.203125 23.578125 36.53125 
Q 23.578125 22.703125 26.171875 17.03125 
Q 28.765625 11.375 34.8125 11.375 
Q 40.828125 11.375 43.40625 17.03125 
Q 46 22.703125 46 36.53125 
z
M 64.796875 36.375 
Q 64.796875 18.265625 56.984375 8.421875 
Q 49.171875 -1.421875 34.8125 -1.421875 
Q 20.40625 -1.421875 12.59375 8.421875 
Q 4.78125 18.265625 4.78125 36.375 
Q 4.78125 54.546875 12.59375 64.375 
Q 20.40625 74.21875 34.8125 74.21875 
Q 49.171875 74.21875 56.984375 64.375 
Q 64.796875 54.546875 64.796875 36.375 
z
" id="DejaVuSans-Bold-48"/>
       <path d="M 10.203125 18.890625 
L 27.78125 18.890625 
L 27.78125 0 
L 10.203125 0 
z
" id="DejaVuSans-Bold-46"/>
      </defs>
      <g transform="translate(48.742969 322.182437)scale(0.1 -0.1)">
       <use xlink:href="#DejaVuSans-Bold-48"/>
       <use x="69.580078" xlink:href="#DejaVuSans-Bold-46"/>
       <use x="107.568359" xlink:href="#DejaVuSans-Bold-48"/>
      </g>
     </g>
    </g>
    <g id="xtick_2">
     <g id="line2d_2">
      <g>
       <use style="stroke:#000000;stroke-width:0.8;" x="129.024" xlink:href="#mc9fecb3a74" y="307.584"/>
      </g>
     </g>
     <g id="text_2">
      <!-- 0.2 -->
      <defs>
       <path d="M 28.8125 13.8125 
L 60.890625 13.8125 
L 60.890625 0 
L 7.90625 0 
L 7.90625 13.8125 
L 34.515625 37.3125 
Q 38.09375 40.53125 39.796875 43.609375 
Q 41.5 46.6875 41.5 50 
Q 41.5 55.125 38.0625 58.25 
Q 34.625 61.375 28.90625 61.375 
Q 24.515625 61.375 19.28125 59.5 
Q 14.0625 57.625 8.109375 53.90625 
L 8.109375 69.921875 
Q 14.453125 72.015625 20.65625 73.109375 
Q 26.859375 74.21875 32.8125 74.21875 
Q 45.90625 74.21875 53.15625 68.453125 
Q 60.40625 62.703125 60.40625 52.390625 
Q 60.40625 46.4375 57.328125 41.28125 
Q 54.25 36.140625 44.390625 27.484375 
z
" id="DejaVuSans-Bold-50"/>
      </defs>
      <g transform="translate(120.166969 322.182437)scale(0.1 -0.1)">
       <use xlink:href="#DejaVuSans-Bold-48"/>
       <use x="69.580078" xlink:href="#DejaVuSans-Bold-46"/>
       <use x="107.568359" xlink:href="#DejaVuSans-Bold-50"/>
      </g>
     </g>
    </g>
    <g id="xtick_3">
     <g id="line2d_3">
      <g>
       <use style="stroke:#000000;stroke-width:0.8;" x="200.448" xlink:href="#mc9fecb3a74" y="307.584"/>
      </g>
     </g>
     <g id="text_3">
      <!-- 0.4 -->
      <defs>
       <path d="M 36.8125 57.421875 
L 16.21875 26.90625 
L 36.8125 26.90625 
z
M 33.6875 72.90625 
L 54.59375 72.90625 
L 54.59375 26.90625 
L 64.984375 26.90625 
L 64.984375 13.28125 
L 54.59375 13.28125 
L 54.59375 0 
L 36.8125 0 
L 36.8125 13.28125 
L 4.5 13.28125 
L 4.5 29.390625 
z
" id="DejaVuSans-Bold-52"/>
      </defs>
      <g transform="translate(191.590969 322.182437)scale(0.1 -0.1)">
       <use xlink:href="#DejaVuSans-Bold-48"/>
       <use x="69.580078" xlink:href="#DejaVuSans-Bold-46"/>
       <use x="107.568359" xlink:href="#DejaVuSans-Bold-52"/>
      </g>
     </g>
    </g>
    <g id="xtick_4">
     <g id="line2d_4">
      <g>
       <use style="stroke:#000000;stroke-width:0.8;" x="271.872" xlink:href="#mc9fecb3a74" y="307.584"/>
      </g>
     </g>
     <g id="text_4">
      <!-- 0.6 -->
      <defs>
       <path d="M 36.1875 35.984375 
Q 31.25 35.984375 28.78125 32.78125 
Q 26.3125 29.59375 26.3125 23.1875 
Q 26.3125 16.796875 28.78125 13.59375 
Q 31.25 10.40625 36.1875 10.40625 
Q 41.15625 10.40625 43.625 13.59375 
Q 46.09375 16.796875 46.09375 23.1875 
Q 46.09375 29.59375 43.625 32.78125 
Q 41.15625 35.984375 36.1875 35.984375 
z
M 59.421875 71 
L 59.421875 57.515625 
Q 54.78125 59.71875 50.671875 60.765625 
Q 46.578125 61.8125 42.671875 61.8125 
Q 34.28125 61.8125 29.59375 57.140625 
Q 24.90625 52.484375 24.125 43.3125 
Q 27.34375 45.703125 31.09375 46.890625 
Q 34.859375 48.09375 39.3125 48.09375 
Q 50.484375 48.09375 57.34375 41.546875 
Q 64.203125 35.015625 64.203125 24.421875 
Q 64.203125 12.703125 56.53125 5.640625 
Q 48.875 -1.421875 35.984375 -1.421875 
Q 21.78125 -1.421875 13.984375 8.171875 
Q 6.203125 17.78125 6.203125 35.40625 
Q 6.203125 53.46875 15.3125 63.796875 
Q 24.421875 74.125 40.28125 74.125 
Q 45.3125 74.125 50.046875 73.34375 
Q 54.78125 72.5625 59.421875 71 
z
" id="DejaVuSans-Bold-54"/>
      </defs>
      <g transform="translate(263.014969 322.182437)scale(0.1 -0.1)">
       <use xlink:href="#DejaVuSans-Bold-48"/>
       <use x="69.580078" xlink:href="#DejaVuSans-Bold-46"/>
       <use x="107.568359" xlink:href="#DejaVuSans-Bold-54"/>
      </g>
     </g>
    </g>
    <g id="xtick_5">
     <g id="line2d_5">
      <g>
       <use style="stroke:#000000;stroke-width:0.8;" x="343.296" xlink:href="#mc9fecb3a74" y="307.584"/>
      </g>
     </g>
     <g id="text_5">
      <!-- 0.8 -->
      <defs>
       <path d="M 34.8125 32.625 
Q 29.546875 32.625 26.703125 29.734375 
Q 23.875 26.859375 23.875 21.484375 
Q 23.875 16.109375 26.703125 13.25 
Q 29.546875 10.40625 34.8125 10.40625 
Q 40.046875 10.40625 42.828125 13.25 
Q 45.609375 16.109375 45.609375 21.484375 
Q 45.609375 26.90625 42.828125 29.765625 
Q 40.046875 32.625 34.8125 32.625 
z
M 21.09375 38.8125 
Q 14.453125 40.828125 11.078125 44.96875 
Q 7.71875 49.125 7.71875 55.328125 
Q 7.71875 64.546875 14.59375 69.375 
Q 21.484375 74.21875 34.8125 74.21875 
Q 48.046875 74.21875 54.921875 69.40625 
Q 61.8125 64.59375 61.8125 55.328125 
Q 61.8125 49.125 58.421875 44.96875 
Q 55.03125 40.828125 48.390625 38.8125 
Q 55.8125 36.765625 59.59375 32.15625 
Q 63.375 27.546875 63.375 20.515625 
Q 63.375 9.671875 56.171875 4.125 
Q 48.96875 -1.421875 34.8125 -1.421875 
Q 20.609375 -1.421875 13.359375 4.125 
Q 6.109375 9.671875 6.109375 20.515625 
Q 6.109375 27.546875 9.890625 32.15625 
Q 13.671875 36.765625 21.09375 38.8125 
z
M 25.484375 53.421875 
Q 25.484375 49.078125 27.90625 46.734375 
Q 30.328125 44.390625 34.8125 44.390625 
Q 39.203125 44.390625 41.59375 46.734375 
Q 44 49.078125 44 53.421875 
Q 44 57.765625 41.59375 60.078125 
Q 39.203125 62.40625 34.8125 62.40625 
Q 30.328125 62.40625 27.90625 60.0625 
Q 25.484375 57.71875 25.484375 53.421875 
z
" id="DejaVuSans-Bold-56"/>
      </defs>
      <g transform="translate(334.438969 322.182437)scale(0.1 -0.1)">
       <use xlink:href="#DejaVuSans-Bold-48"/>
       <use x="69.580078" xlink:href="#DejaVuSans-Bold-46"/>
       <use x="107.568359" xlink:href="#DejaVuSans-Bold-56"/>
      </g>
     </g>
    </g>
    <g id="xtick_6">
     <g id="line2d_6">
      <g>
       <use style="stroke:#000000;stroke-width:0.8;" x="414.72" xlink:href="#mc9fecb3a74" y="307.584"/>
      </g>
     </g>
     <g id="text_6">
      <!-- 1.0 -->
      <defs>
       <path d="M 11.71875 12.984375 
L 28.328125 12.984375 
L 28.328125 60.109375 
L 11.28125 56.59375 
L 11.28125 69.390625 
L 28.21875 72.90625 
L 46.09375 72.90625 
L 46.09375 12.984375 
L 62.703125 12.984375 
L 62.703125 0 
L 11.71875 0 
z
" id="DejaVuSans-Bold-49"/>
      </defs>
      <g transform="translate(405.862969 322.182437)scale(0.1 -0.1)">
       <use xlink:href="#DejaVuSans-Bold-49"/>
       <use x="69.580078" xlink:href="#DejaVuSans-Bold-46"/>
       <use x="107.568359" xlink:href="#DejaVuSans-Bold-48"/>
      </g>
     </g>
    </g>
    <g id="text_7">
     <!-- Oribital Eccentricity -->
     <defs>
      <path d="M 42.484375 60.59375 
Q 33.890625 60.59375 29.15625 54.25 
Q 24.421875 47.90625 24.421875 36.375 
Q 24.421875 24.90625 29.15625 18.546875 
Q 33.890625 12.203125 42.484375 12.203125 
Q 51.125 12.203125 55.859375 18.546875 
Q 60.59375 24.90625 60.59375 36.375 
Q 60.59375 47.90625 55.859375 54.25 
Q 51.125 60.59375 42.484375 60.59375 
z
M 42.484375 74.21875 
Q 60.0625 74.21875 70.015625 64.15625 
Q 79.984375 54.109375 79.984375 36.375 
Q 79.984375 18.703125 70.015625 8.640625 
Q 60.0625 -1.421875 42.484375 -1.421875 
Q 24.953125 -1.421875 14.96875 8.640625 
Q 4.984375 18.703125 4.984375 36.375 
Q 4.984375 54.109375 14.96875 64.15625 
Q 24.953125 74.21875 42.484375 74.21875 
z
" id="DejaVuSans-Bold-79"/>
      <path d="M 49.03125 39.796875 
Q 46.734375 40.875 44.453125 41.375 
Q 42.1875 41.890625 39.890625 41.890625 
Q 33.15625 41.890625 29.515625 37.5625 
Q 25.875 33.25 25.875 25.203125 
L 25.875 0 
L 8.40625 0 
L 8.40625 54.6875 
L 25.875 54.6875 
L 25.875 45.703125 
Q 29.25 51.078125 33.609375 53.53125 
Q 37.984375 56 44.09375 56 
Q 44.96875 56 45.984375 55.921875 
Q 47.015625 55.859375 48.96875 55.609375 
z
" id="DejaVuSans-Bold-114"/>
      <path d="M 8.40625 54.6875 
L 25.875 54.6875 
L 25.875 0 
L 8.40625 0 
z
M 8.40625 75.984375 
L 25.875 75.984375 
L 25.875 61.71875 
L 8.40625 61.71875 
z
" id="DejaVuSans-Bold-105"/>
      <path d="M 37.5 11.28125 
Q 43.109375 11.28125 46.0625 15.375 
Q 49.03125 19.484375 49.03125 27.296875 
Q 49.03125 35.109375 46.0625 39.203125 
Q 43.109375 43.3125 37.5 43.3125 
Q 31.890625 43.3125 28.875 39.1875 
Q 25.875 35.0625 25.875 27.296875 
Q 25.875 19.53125 28.875 15.40625 
Q 31.890625 11.28125 37.5 11.28125 
z
M 25.875 46.6875 
Q 29.5 51.46875 33.890625 53.734375 
Q 38.28125 56 44 56 
Q 54.109375 56 60.59375 47.96875 
Q 67.09375 39.9375 67.09375 27.296875 
Q 67.09375 14.65625 60.59375 6.609375 
Q 54.109375 -1.421875 44 -1.421875 
Q 38.28125 -1.421875 33.890625 0.84375 
Q 29.5 3.125 25.875 7.90625 
L 25.875 0 
L 8.40625 0 
L 8.40625 75.984375 
L 25.875 75.984375 
z
" id="DejaVuSans-Bold-98"/>
      <path d="M 27.484375 70.21875 
L 27.484375 54.6875 
L 45.515625 54.6875 
L 45.515625 42.1875 
L 27.484375 42.1875 
L 27.484375 19 
Q 27.484375 15.1875 29 13.84375 
Q 30.515625 12.5 35.015625 12.5 
L 44 12.5 
L 44 0 
L 29 0 
Q 18.65625 0 14.328125 4.3125 
Q 10.015625 8.640625 10.015625 19 
L 10.015625 42.1875 
L 1.3125 42.1875 
L 1.3125 54.6875 
L 10.015625 54.6875 
L 10.015625 70.21875 
z
" id="DejaVuSans-Bold-116"/>
      <path d="M 32.90625 24.609375 
Q 27.4375 24.609375 24.671875 22.75 
Q 21.921875 20.90625 21.921875 17.28125 
Q 21.921875 13.96875 24.140625 12.078125 
Q 26.375 10.203125 30.328125 10.203125 
Q 35.25 10.203125 38.625 13.734375 
Q 42 17.28125 42 22.609375 
L 42 24.609375 
z
M 59.625 31.203125 
L 59.625 0 
L 42 0 
L 42 8.109375 
Q 38.484375 3.125 34.078125 0.84375 
Q 29.6875 -1.421875 23.390625 -1.421875 
Q 14.890625 -1.421875 9.59375 3.53125 
Q 4.296875 8.5 4.296875 16.40625 
Q 4.296875 26.03125 10.90625 30.515625 
Q 17.53125 35.015625 31.6875 35.015625 
L 42 35.015625 
L 42 36.375 
Q 42 40.53125 38.71875 42.453125 
Q 35.453125 44.390625 28.515625 44.390625 
Q 22.90625 44.390625 18.0625 43.265625 
Q 13.234375 42.140625 9.078125 39.890625 
L 9.078125 53.21875 
Q 14.703125 54.59375 20.359375 55.296875 
Q 26.03125 56 31.6875 56 
Q 46.484375 56 53.046875 50.171875 
Q 59.625 44.34375 59.625 31.203125 
z
" id="DejaVuSans-Bold-97"/>
      <path d="M 8.40625 75.984375 
L 25.875 75.984375 
L 25.875 0 
L 8.40625 0 
z
" id="DejaVuSans-Bold-108"/>
      <path id="DejaVuSans-Bold-32"/>
      <path d="M 9.1875 72.90625 
L 59.90625 72.90625 
L 59.90625 58.6875 
L 27.984375 58.6875 
L 27.984375 45.125 
L 58.015625 45.125 
L 58.015625 30.90625 
L 27.984375 30.90625 
L 27.984375 14.203125 
L 60.984375 14.203125 
L 60.984375 0 
L 9.1875 0 
z
" id="DejaVuSans-Bold-69"/>
      <path d="M 52.59375 52.984375 
L 52.59375 38.71875 
Q 49.03125 41.15625 45.4375 42.328125 
Q 41.84375 43.5 37.984375 43.5 
Q 30.671875 43.5 26.59375 39.234375 
Q 22.515625 34.96875 22.515625 27.296875 
Q 22.515625 19.625 26.59375 15.34375 
Q 30.671875 11.078125 37.984375 11.078125 
Q 42.09375 11.078125 45.78125 12.296875 
Q 49.46875 13.53125 52.59375 15.921875 
L 52.59375 1.609375 
Q 48.484375 0.09375 44.265625 -0.65625 
Q 40.046875 -1.421875 35.796875 -1.421875 
Q 21 -1.421875 12.640625 6.171875 
Q 4.296875 13.765625 4.296875 27.296875 
Q 4.296875 40.828125 12.640625 48.40625 
Q 21 56 35.796875 56 
Q 40.09375 56 44.265625 55.25 
Q 48.4375 54.5 52.59375 52.984375 
z
" id="DejaVuSans-Bold-99"/>
      <path d="M 62.984375 27.484375 
L 62.984375 22.515625 
L 22.125 22.515625 
Q 22.75 16.359375 26.5625 13.28125 
Q 30.375 10.203125 37.203125 10.203125 
Q 42.71875 10.203125 48.5 11.84375 
Q 54.296875 13.484375 60.40625 16.796875 
L 60.40625 3.328125 
Q 54.203125 0.984375 48 -0.21875 
Q 41.796875 -1.421875 35.59375 -1.421875 
Q 20.75 -1.421875 12.515625 6.125 
Q 4.296875 13.671875 4.296875 27.296875 
Q 4.296875 40.671875 12.375 48.328125 
Q 20.453125 56 34.625 56 
Q 47.515625 56 55.25 48.234375 
Q 62.984375 40.484375 62.984375 27.484375 
z
M 45.015625 33.296875 
Q 45.015625 38.28125 42.109375 41.328125 
Q 39.203125 44.390625 34.515625 44.390625 
Q 29.4375 44.390625 26.265625 41.53125 
Q 23.09375 38.671875 22.3125 33.296875 
z
" id="DejaVuSans-Bold-101"/>
      <path d="M 63.375 33.296875 
L 63.375 0 
L 45.796875 0 
L 45.796875 5.421875 
L 45.796875 25.484375 
Q 45.796875 32.5625 45.484375 35.25 
Q 45.171875 37.9375 44.390625 39.203125 
Q 43.359375 40.921875 41.59375 41.875 
Q 39.84375 42.828125 37.59375 42.828125 
Q 32.125 42.828125 29 38.59375 
Q 25.875 34.375 25.875 26.90625 
L 25.875 0 
L 8.40625 0 
L 8.40625 54.6875 
L 25.875 54.6875 
L 25.875 46.6875 
Q 29.828125 51.46875 34.265625 53.734375 
Q 38.71875 56 44.09375 56 
Q 53.5625 56 58.46875 50.1875 
Q 63.375 44.390625 63.375 33.296875 
z
" id="DejaVuSans-Bold-110"/>
      <path d="M 1.21875 54.6875 
L 18.703125 54.6875 
L 33.40625 17.578125 
L 45.90625 54.6875 
L 63.375 54.6875 
L 40.375 -5.171875 
Q 36.921875 -14.3125 32.296875 -17.9375 
Q 27.6875 -21.578125 20.125 -21.578125 
L 10.015625 -21.578125 
L 10.015625 -10.109375 
L 15.484375 -10.109375 
Q 19.921875 -10.109375 21.9375 -8.6875 
Q 23.96875 -7.28125 25.09375 -3.609375 
L 25.59375 -2.09375 
z
" id="DejaVuSans-Bold-121"/>
     </defs>
     <g transform="translate(180.026406 335.860562)scale(0.1 -0.1)">
      <use xlink:href="#DejaVuSans-Bold-79"/>
      <use x="85.009766" xlink:href="#DejaVuSans-Bold-114"/>
      <use x="134.326172" xlink:href="#DejaVuSans-Bold-105"/>
      <use x="168.603516" xlink:href="#DejaVuSans-Bold-98"/>
      <use x="240.185547" xlink:href="#DejaVuSans-Bold-105"/>
      <use x="274.462891" xlink:href="#DejaVuSans-Bold-116"/>
      <use x="322.265625" xlink:href="#DejaVuSans-Bold-97"/>
      <use x="389.746094" xlink:href="#DejaVuSans-Bold-108"/>
      <use x="424.023438" xlink:href="#DejaVuSans-Bold-32"/>
      <use x="458.837891" xlink:href="#DejaVuSans-Bold-69"/>
      <use x="527.148438" xlink:href="#DejaVuSans-Bold-99"/>
      <use x="586.425781" xlink:href="#DejaVuSans-Bold-99"/>
      <use x="645.703125" xlink:href="#DejaVuSans-Bold-101"/>
      <use x="713.525391" xlink:href="#DejaVuSans-Bold-110"/>
      <use x="784.716797" xlink:href="#DejaVuSans-Bold-116"/>
      <use x="832.519531" xlink:href="#DejaVuSans-Bold-114"/>
      <use x="881.835938" xlink:href="#DejaVuSans-Bold-105"/>
      <use x="916.113281" xlink:href="#DejaVuSans-Bold-99"/>
      <use x="975.390625" xlink:href="#DejaVuSans-Bold-105"/>
      <use x="1009.667969" xlink:href="#DejaVuSans-Bold-116"/>
      <use x="1057.470703" xlink:href="#DejaVuSans-Bold-121"/>
     </g>
    </g>
   </g>
   <g id="matplotlib.axis_2">
    <g id="ytick_1">
     <g id="line2d_7">
      <defs>
       <path d="M 0 0 
L -3.5 0 
" id="m815eaa87e0" style="stroke:#000000;stroke-width:0.8;"/>
      </defs>
      <g>
       <use style="stroke:#000000;stroke-width:0.8;" x="57.6" xlink:href="#m815eaa87e0" y="307.584"/>
      </g>
     </g>
     <g id="text_8">
      <!-- 0 -->
      <g transform="translate(43.642187 311.383219)scale(0.1 -0.1)">
       <use xlink:href="#DejaVuSans-Bold-48"/>
      </g>
     </g>
    </g>
    <g id="ytick_2">
     <g id="line2d_8">
      <g>
       <use style="stroke:#000000;stroke-width:0.8;" x="57.6" xlink:href="#m815eaa87e0" y="263.232"/>
      </g>
     </g>
     <g id="text_9">
      <!-- 100 -->
      <g transform="translate(29.726562 267.031219)scale(0.1 -0.1)">
       <use xlink:href="#DejaVuSans-Bold-49"/>
       <use x="69.580078" xlink:href="#DejaVuSans-Bold-48"/>
       <use x="139.160156" xlink:href="#DejaVuSans-Bold-48"/>
      </g>
     </g>
    </g>
    <g id="ytick_3">
     <g id="line2d_9">
      <g>
       <use style="stroke:#000000;stroke-width:0.8;" x="57.6" xlink:href="#m815eaa87e0" y="218.88"/>
      </g>
     </g>
     <g id="text_10">
      <!-- 200 -->
      <g transform="translate(29.726562 222.679219)scale(0.1 -0.1)">
       <use xlink:href="#DejaVuSans-Bold-50"/>
       <use x="69.580078" xlink:href="#DejaVuSans-Bold-48"/>
       <use x="139.160156" xlink:href="#DejaVuSans-Bold-48"/>
      </g>
     </g>
    </g>
    <g id="ytick_4">
     <g id="line2d_10">
      <g>
       <use style="stroke:#000000;stroke-width:0.8;" x="57.6" xlink:href="#m815eaa87e0" y="174.528"/>
      </g>
     </g>
     <g id="text_11">
      <!-- 300 -->
      <defs>
       <path d="M 46.578125 39.3125 
Q 53.953125 37.40625 57.78125 32.6875 
Q 61.625 27.984375 61.625 20.703125 
Q 61.625 9.859375 53.3125 4.21875 
Q 45.015625 -1.421875 29.109375 -1.421875 
Q 23.484375 -1.421875 17.84375 -0.515625 
Q 12.203125 0.390625 6.6875 2.203125 
L 6.6875 16.703125 
Q 11.96875 14.0625 17.15625 12.71875 
Q 22.359375 11.375 27.390625 11.375 
Q 34.859375 11.375 38.84375 13.953125 
Q 42.828125 16.546875 42.828125 21.390625 
Q 42.828125 26.375 38.75 28.9375 
Q 34.671875 31.5 26.703125 31.5 
L 19.1875 31.5 
L 19.1875 43.609375 
L 27.09375 43.609375 
Q 34.1875 43.609375 37.640625 45.828125 
Q 41.109375 48.046875 41.109375 52.59375 
Q 41.109375 56.78125 37.734375 59.078125 
Q 34.375 61.375 28.21875 61.375 
Q 23.6875 61.375 19.046875 60.34375 
Q 14.40625 59.328125 9.8125 57.328125 
L 9.8125 71.09375 
Q 15.375 72.65625 20.84375 73.4375 
Q 26.3125 74.21875 31.59375 74.21875 
Q 45.796875 74.21875 52.84375 69.546875 
Q 59.90625 64.890625 59.90625 55.515625 
Q 59.90625 49.125 56.53125 45.046875 
Q 53.171875 40.96875 46.578125 39.3125 
z
" id="DejaVuSans-Bold-51"/>
      </defs>
      <g transform="translate(29.726562 178.327219)scale(0.1 -0.1)">
       <use xlink:href="#DejaVuSans-Bold-51"/>
       <use x="69.580078" xlink:href="#DejaVuSans-Bold-48"/>
       <use x="139.160156" xlink:href="#DejaVuSans-Bold-48"/>
      </g>
     </g>
    </g>
    <g id="ytick_5">
     <g id="line2d_11">
      <g>
       <use style="stroke:#000000;stroke-width:0.8;" x="57.6" xlink:href="#m815eaa87e0" y="130.176"/>
      </g>
     </g>
     <g id="text_12">
      <!-- 400 -->
      <g transform="translate(29.726562 133.975219)scale(0.1 -0.1)">
       <use xlink:href="#DejaVuSans-Bold-52"/>
       <use x="69.580078" xlink:href="#DejaVuSans-Bold-48"/>
       <use x="139.160156" xlink:href="#DejaVuSans-Bold-48"/>
      </g>
     </g>
    </g>
    <g id="ytick_6">
     <g id="line2d_12">
      <g>
       <use style="stroke:#000000;stroke-width:0.8;" x="57.6" xlink:href="#m815eaa87e0" y="85.824"/>
      </g>
     </g>
     <g id="text_13">
      <!-- 500 -->
      <defs>
       <path d="M 10.59375 72.90625 
L 57.328125 72.90625 
L 57.328125 59.078125 
L 25.59375 59.078125 
L 25.59375 47.796875 
Q 27.734375 48.390625 29.90625 48.703125 
Q 32.078125 49.03125 34.421875 49.03125 
Q 47.75 49.03125 55.171875 42.359375 
Q 62.59375 35.6875 62.59375 23.78125 
Q 62.59375 11.96875 54.515625 5.265625 
Q 46.4375 -1.421875 32.078125 -1.421875 
Q 25.875 -1.421875 19.796875 -0.21875 
Q 13.71875 0.984375 7.71875 3.421875 
L 7.71875 18.21875 
Q 13.671875 14.796875 19.015625 13.078125 
Q 24.359375 11.375 29.109375 11.375 
Q 35.9375 11.375 39.859375 14.71875 
Q 43.796875 18.0625 43.796875 23.78125 
Q 43.796875 29.546875 39.859375 32.859375 
Q 35.9375 36.1875 29.109375 36.1875 
Q 25.046875 36.1875 20.453125 35.125 
Q 15.875 34.078125 10.59375 31.890625 
z
" id="DejaVuSans-Bold-53"/>
      </defs>
      <g transform="translate(29.726562 89.623219)scale(0.1 -0.1)">
       <use xlink:href="#DejaVuSans-Bold-53"/>
       <use x="69.580078" xlink:href="#DejaVuSans-Bold-48"/>
       <use x="139.160156" xlink:href="#DejaVuSans-Bold-48"/>
      </g>
     </g>
    </g>
    <g id="ytick_7">
     <g id="line2d_13">
      <g>
       <use style="stroke:#000000;stroke-width:0.8;" x="57.6" xlink:href="#m815eaa87e0" y="41.472"/>
      </g>
     </g>
     <g id="text_14">
      <!-- 600 -->
      <g transform="translate(29.726562 45.271219)scale(0.1 -0.1)">
       <use xlink:href="#DejaVuSans-Bold-54"/>
       <use x="69.580078" xlink:href="#DejaVuSans-Bold-48"/>
       <use x="139.160156" xlink:href="#DejaVuSans-Bold-48"/>
      </g>
     </g>
    </g>
    <g id="text_15">
     <!-- Eccentricty Frequency (count) -->
     <defs>
      <path d="M 9.1875 72.90625 
L 59.90625 72.90625 
L 59.90625 58.6875 
L 27.984375 58.6875 
L 27.984375 45.125 
L 58.015625 45.125 
L 58.015625 30.90625 
L 27.984375 30.90625 
L 27.984375 0 
L 9.1875 0 
z
" id="DejaVuSans-Bold-70"/>
      <path d="M 34.078125 43.3125 
Q 28.515625 43.3125 25.5625 39.203125 
Q 22.609375 35.109375 22.609375 27.296875 
Q 22.609375 19.484375 25.5625 15.375 
Q 28.515625 11.28125 34.078125 11.28125 
Q 39.703125 11.28125 42.65625 15.375 
Q 45.609375 19.484375 45.609375 27.296875 
Q 45.609375 35.109375 42.65625 39.203125 
Q 39.703125 43.3125 34.078125 43.3125 
z
M 45.609375 7.90625 
Q 42 3.078125 37.640625 0.828125 
Q 33.296875 -1.421875 27.59375 -1.421875 
Q 17.484375 -1.421875 10.984375 6.609375 
Q 4.5 14.65625 4.5 27.296875 
Q 4.5 39.9375 10.984375 47.921875 
Q 17.484375 55.90625 27.59375 55.90625 
Q 33.296875 55.90625 37.640625 53.65625 
Q 42 51.421875 45.609375 46.578125 
L 45.609375 54.6875 
L 63.1875 54.6875 
L 63.1875 -20.796875 
L 45.609375 -20.796875 
z
" id="DejaVuSans-Bold-113"/>
      <path d="M 7.8125 21.296875 
L 7.8125 54.6875 
L 25.390625 54.6875 
L 25.390625 49.21875 
Q 25.390625 44.78125 25.34375 38.0625 
Q 25.296875 31.34375 25.296875 29.109375 
Q 25.296875 22.515625 25.640625 19.609375 
Q 25.984375 16.703125 26.8125 15.375 
Q 27.875 13.671875 29.609375 12.734375 
Q 31.34375 11.8125 33.59375 11.8125 
Q 39.0625 11.8125 42.1875 16.015625 
Q 45.3125 20.21875 45.3125 27.6875 
L 45.3125 54.6875 
L 62.796875 54.6875 
L 62.796875 0 
L 45.3125 0 
L 45.3125 7.90625 
Q 41.359375 3.125 36.9375 0.84375 
Q 32.515625 -1.421875 27.203125 -1.421875 
Q 17.71875 -1.421875 12.765625 4.390625 
Q 7.8125 10.203125 7.8125 21.296875 
z
" id="DejaVuSans-Bold-117"/>
      <path d="M 37.703125 -13.1875 
L 23.1875 -13.1875 
Q 15.71875 -1.125 12.15625 9.734375 
Q 8.59375 20.609375 8.59375 31.296875 
Q 8.59375 42 12.171875 52.953125 
Q 15.765625 63.921875 23.1875 75.875 
L 37.703125 75.875 
Q 31.453125 64.3125 28.328125 53.25 
Q 25.203125 42.1875 25.203125 31.390625 
Q 25.203125 20.609375 28.296875 9.515625 
Q 31.390625 -1.5625 37.703125 -13.1875 
z
" id="DejaVuSans-Bold-40"/>
      <path d="M 34.421875 43.5 
Q 28.609375 43.5 25.5625 39.328125 
Q 22.515625 35.15625 22.515625 27.296875 
Q 22.515625 19.4375 25.5625 15.25 
Q 28.609375 11.078125 34.421875 11.078125 
Q 40.140625 11.078125 43.15625 15.25 
Q 46.1875 19.4375 46.1875 27.296875 
Q 46.1875 35.15625 43.15625 39.328125 
Q 40.140625 43.5 34.421875 43.5 
z
M 34.421875 56 
Q 48.53125 56 56.46875 48.375 
Q 64.40625 40.765625 64.40625 27.296875 
Q 64.40625 13.8125 56.46875 6.1875 
Q 48.53125 -1.421875 34.421875 -1.421875 
Q 20.265625 -1.421875 12.28125 6.1875 
Q 4.296875 13.8125 4.296875 27.296875 
Q 4.296875 40.765625 12.28125 48.375 
Q 20.265625 56 34.421875 56 
z
" id="DejaVuSans-Bold-111"/>
      <path d="M 8.015625 -13.1875 
Q 14.265625 -1.5625 17.390625 9.515625 
Q 20.515625 20.609375 20.515625 31.390625 
Q 20.515625 42.1875 17.390625 53.25 
Q 14.265625 64.3125 8.015625 75.875 
L 22.515625 75.875 
Q 29.9375 63.921875 33.515625 52.953125 
Q 37.109375 42 37.109375 31.296875 
Q 37.109375 20.609375 33.546875 9.734375 
Q 29.984375 -1.125 22.515625 -13.1875 
z
" id="DejaVuSans-Bold-41"/>
     </defs>
     <g transform="translate(23.56875 259.545187)rotate(-90)scale(0.1 -0.1)">
      <use xlink:href="#DejaVuSans-Bold-69"/>
      <use x="68.310547" xlink:href="#DejaVuSans-Bold-99"/>
      <use x="127.587891" xlink:href="#DejaVuSans-Bold-99"/>
      <use x="186.865234" xlink:href="#DejaVuSans-Bold-101"/>
      <use x="254.6875" xlink:href="#DejaVuSans-Bold-110"/>
      <use x="325.878906" xlink:href="#DejaVuSans-Bold-116"/>
      <use x="373.681641" xlink:href="#DejaVuSans-Bold-114"/>
      <use x="422.998047" xlink:href="#DejaVuSans-Bold-105"/>
      <use x="457.275391" xlink:href="#DejaVuSans-Bold-99"/>
      <use x="516.552734" xlink:href="#DejaVuSans-Bold-116"/>
      <use x="564.355469" xlink:href="#DejaVuSans-Bold-121"/>
      <use x="629.541016" xlink:href="#DejaVuSans-Bold-32"/>
      <use x="664.355469" xlink:href="#DejaVuSans-Bold-70"/>
      <use x="732.572266" xlink:href="#DejaVuSans-Bold-114"/>
      <use x="781.888672" xlink:href="#DejaVuSans-Bold-101"/>
      <use x="849.710938" xlink:href="#DejaVuSans-Bold-113"/>
      <use x="921.292969" xlink:href="#DejaVuSans-Bold-117"/>
      <use x="992.484375" xlink:href="#DejaVuSans-Bold-101"/>
      <use x="1060.306641" xlink:href="#DejaVuSans-Bold-110"/>
      <use x="1131.498047" xlink:href="#DejaVuSans-Bold-99"/>
      <use x="1190.775391" xlink:href="#DejaVuSans-Bold-121"/>
      <use x="1255.960938" xlink:href="#DejaVuSans-Bold-32"/>
      <use x="1290.775391" xlink:href="#DejaVuSans-Bold-40"/>
      <use x="1336.478516" xlink:href="#DejaVuSans-Bold-99"/>
      <use x="1395.755859" xlink:href="#DejaVuSans-Bold-111"/>
      <use x="1464.457031" xlink:href="#DejaVuSans-Bold-117"/>
      <use x="1535.648438" xlink:href="#DejaVuSans-Bold-110"/>
      <use x="1606.839844" xlink:href="#DejaVuSans-Bold-116"/>
      <use x="1654.642578" xlink:href="#DejaVuSans-Bold-41"/>
     </g>
    </g>
   </g>
   <g id="patch_3">
    <path d="M 57.6 307.584 
L 57.6 41.472 
" style="fill:none;stroke:#000000;stroke-linecap:square;stroke-linejoin:miter;stroke-width:2;"/>
   </g>
   <g id="patch_4">
    <path d="M 414.72 307.584 
L 414.72 41.472 
" style="fill:none;stroke:#000000;stroke-linecap:square;stroke-linejoin:miter;stroke-width:2;"/>
   </g>
   <g id="patch_5">
    <path d="M 57.6 307.584 
L 414.72 307.584 
" style="fill:none;stroke:#000000;stroke-linecap:square;stroke-linejoin:miter;stroke-width:2;"/>
   </g>
   <g id="patch_6">
    <path d="M 57.6 41.472 
L 414.72 41.472 
" style="fill:none;stroke:#000000;stroke-linecap:square;stroke-linejoin:miter;stroke-width:2;"/>
   </g>
   <g id="patch_7">
    <path clip-path="url(#p2cb5c913ed)" d="M 57.6 307.584 
L 90.81216 307.584 
L 90.81216 123.5232 
L 57.6 123.5232 
z
"/>
   </g>
   <g id="patch_8">
    <path clip-path="url(#p2cb5c913ed)" d="M 90.81216 307.584 
L 124.02432 307.584 
L 124.02432 268.99776 
L 90.81216 268.99776 
z
"/>
   </g>
   <g id="patch_9">
    <path clip-path="url(#p2cb5c913ed)" d="M 124.02432 307.584 
L 157.23648 307.584 
L 157.23648 290.28672 
L 124.02432 290.28672 
z
"/>
   </g>
   <g id="patch_10">
    <path clip-path="url(#p2cb5c913ed)" d="M 157.23648 307.584 
L 190.44864 307.584 
L 190.44864 294.72192 
L 157.23648 294.72192 
z
"/>
   </g>
   <g id="patch_11">
    <path clip-path="url(#p2cb5c913ed)" d="M 190.44864 307.584 
L 223.6608 307.584 
L 223.6608 302.70528 
L 190.44864 302.70528 
z
"/>
   </g>
   <g id="patch_12">
    <path clip-path="url(#p2cb5c913ed)" d="M 223.6608 307.584 
L 256.87296 307.584 
L 256.87296 303.59232 
L 223.6608 303.59232 
z
"/>
   </g>
   <g id="patch_13">
    <path clip-path="url(#p2cb5c913ed)" d="M 256.87296 307.584 
L 290.08512 307.584 
L 290.08512 305.80992 
L 256.87296 305.80992 
z
"/>
   </g>
   <g id="patch_14">
    <path clip-path="url(#p2cb5c913ed)" d="M 290.08512 307.584 
L 323.29728 307.584 
L 323.29728 306.69696 
L 290.08512 306.69696 
z
"/>
   </g>
   <g id="patch_15">
    <path clip-path="url(#p2cb5c913ed)" d="M 323.29728 307.584 
L 356.50944 307.584 
L 356.50944 306.25344 
L 323.29728 306.25344 
z
"/>
   </g>
   <g id="patch_16">
    <path clip-path="url(#p2cb5c913ed)" d="M 356.50944 307.584 
L 389.7216 307.584 
L 389.7216 307.14048 
L 356.50944 307.14048 
z
"/>
   </g>
  </g>
  <g id="axes_2">
   <g id="matplotlib.axis_3">
    <g id="ytick_8">
     <g id="line2d_14">
      <defs>
       <path d="M 0 0 
L 3.5 0 
" id="m834afefc21" style="stroke:#000000;stroke-width:0.8;"/>
      </defs>
      <g>
       <use style="stroke:#000000;stroke-width:0.8;" x="414.72" xlink:href="#m834afefc21" y="307.584"/>
      </g>
     </g>
     <g id="text_16">
      <!-- 0 -->
      <g transform="translate(421.72 311.383219)scale(0.1 -0.1)">
       <use xlink:href="#DejaVuSans-Bold-48"/>
      </g>
     </g>
    </g>
    <g id="ytick_9">
     <g id="line2d_15">
      <g>
       <use style="stroke:#000000;stroke-width:0.8;" x="414.72" xlink:href="#m834afefc21" y="254.3616"/>
      </g>
     </g>
     <g id="text_17">
      <!-- 20 -->
      <g transform="translate(421.72 258.160819)scale(0.1 -0.1)">
       <use xlink:href="#DejaVuSans-Bold-50"/>
       <use x="69.580078" xlink:href="#DejaVuSans-Bold-48"/>
      </g>
     </g>
    </g>
    <g id="ytick_10">
     <g id="line2d_16">
      <g>
       <use style="stroke:#000000;stroke-width:0.8;" x="414.72" xlink:href="#m834afefc21" y="201.1392"/>
      </g>
     </g>
     <g id="text_18">
      <!-- 40 -->
      <g transform="translate(421.72 204.938419)scale(0.1 -0.1)">
       <use xlink:href="#DejaVuSans-Bold-52"/>
       <use x="69.580078" xlink:href="#DejaVuSans-Bold-48"/>
      </g>
     </g>
    </g>
    <g id="ytick_11">
     <g id="line2d_17">
      <g>
       <use style="stroke:#000000;stroke-width:0.8;" x="414.72" xlink:href="#m834afefc21" y="147.9168"/>
      </g>
     </g>
     <g id="text_19">
      <!-- 60 -->
      <g transform="translate(421.72 151.716019)scale(0.1 -0.1)">
       <use xlink:href="#DejaVuSans-Bold-54"/>
       <use x="69.580078" xlink:href="#DejaVuSans-Bold-48"/>
      </g>
     </g>
    </g>
    <g id="ytick_12">
     <g id="line2d_18">
      <g>
       <use style="stroke:#000000;stroke-width:0.8;" x="414.72" xlink:href="#m834afefc21" y="94.6944"/>
      </g>
     </g>
     <g id="text_20">
      <!-- 80 -->
      <g transform="translate(421.72 98.493619)scale(0.1 -0.1)">
       <use xlink:href="#DejaVuSans-Bold-56"/>
       <use x="69.580078" xlink:href="#DejaVuSans-Bold-48"/>
      </g>
     </g>
    </g>
    <g id="ytick_13">
     <g id="line2d_19">
      <g>
       <use style="stroke:#000000;stroke-width:0.8;" x="414.72" xlink:href="#m834afefc21" y="41.472"/>
      </g>
     </g>
     <g id="text_21">
      <!-- 100 -->
      <g transform="translate(421.72 45.271219)scale(0.1 -0.1)">
       <use xlink:href="#DejaVuSans-Bold-49"/>
       <use x="69.580078" xlink:href="#DejaVuSans-Bold-48"/>
       <use x="139.160156" xlink:href="#DejaVuSans-Bold-48"/>
      </g>
     </g>
    </g>
    <g id="text_22">
     <!-- Eccentricty CDF (%) -->
     <defs>
      <path d="M 67 4 
Q 61.8125 1.3125 56.203125 -0.046875 
Q 50.59375 -1.421875 44.484375 -1.421875 
Q 26.265625 -1.421875 15.625 8.765625 
Q 4.984375 18.953125 4.984375 36.375 
Q 4.984375 53.859375 15.625 64.03125 
Q 26.265625 74.21875 44.484375 74.21875 
Q 50.59375 74.21875 56.203125 72.84375 
Q 61.8125 71.484375 67 68.796875 
L 67 53.71875 
Q 61.765625 57.28125 56.6875 58.9375 
Q 51.609375 60.59375 46 60.59375 
Q 35.9375 60.59375 30.171875 54.140625 
Q 24.421875 47.703125 24.421875 36.375 
Q 24.421875 25.09375 30.171875 18.640625 
Q 35.9375 12.203125 46 12.203125 
Q 51.609375 12.203125 56.6875 13.859375 
Q 61.765625 15.53125 67 19.09375 
z
" id="DejaVuSans-Bold-67"/>
      <path d="M 27.984375 58.6875 
L 27.984375 14.203125 
L 34.71875 14.203125 
Q 46.234375 14.203125 52.3125 19.921875 
Q 58.40625 25.640625 58.40625 36.53125 
Q 58.40625 47.359375 52.34375 53.015625 
Q 46.296875 58.6875 34.71875 58.6875 
z
M 9.1875 72.90625 
L 29 72.90625 
Q 45.609375 72.90625 53.734375 70.53125 
Q 61.859375 68.171875 67.671875 62.5 
Q 72.796875 57.5625 75.28125 51.109375 
Q 77.78125 44.671875 77.78125 36.53125 
Q 77.78125 28.265625 75.28125 21.796875 
Q 72.796875 15.328125 67.671875 10.40625 
Q 61.8125 4.734375 53.609375 2.359375 
Q 45.40625 0 29 0 
L 9.1875 0 
z
" id="DejaVuSans-Bold-68"/>
      <path d="M 77.484375 30.078125 
Q 74.03125 30.078125 72.125 27.078125 
Q 70.21875 24.078125 70.21875 18.5 
Q 70.21875 12.890625 72.09375 9.890625 
Q 73.96875 6.890625 77.484375 6.890625 
Q 81 6.890625 82.859375 9.890625 
Q 84.71875 12.890625 84.71875 18.5 
Q 84.71875 24.078125 82.828125 27.078125 
Q 80.953125 30.078125 77.484375 30.078125 
z
M 77.484375 38.28125 
Q 86.578125 38.28125 91.796875 33 
Q 97.015625 27.734375 97.015625 18.5 
Q 97.015625 9.28125 91.796875 3.921875 
Q 86.578125 -1.421875 77.484375 -1.421875 
Q 68.40625 -1.421875 63.15625 3.921875 
Q 57.90625 9.28125 57.90625 18.5 
Q 57.90625 27.6875 63.15625 32.984375 
Q 68.40625 38.28125 77.484375 38.28125 
z
M 32.71875 -1.421875 
L 21.921875 -1.421875 
L 67.484375 74.21875 
L 78.328125 74.21875 
z
M 22.703125 74.21875 
Q 31.78125 74.21875 36.984375 68.921875 
Q 42.1875 63.625 42.1875 54.390625 
Q 42.1875 45.171875 36.984375 39.84375 
Q 31.78125 34.515625 22.703125 34.515625 
Q 13.625 34.515625 8.421875 39.84375 
Q 3.21875 45.171875 3.21875 54.390625 
Q 3.21875 63.625 8.421875 68.921875 
Q 13.625 74.21875 22.703125 74.21875 
z
M 22.703125 66.015625 
Q 19.1875 66.015625 17.28125 62.984375 
Q 15.375 59.96875 15.375 54.390625 
Q 15.375 48.78125 17.28125 45.71875 
Q 19.1875 42.671875 22.703125 42.671875 
Q 26.21875 42.671875 28.09375 45.71875 
Q 29.984375 48.78125 29.984375 54.390625 
Q 29.984375 59.96875 28.078125 62.984375 
Q 26.171875 66.015625 22.703125 66.015625 
z
" id="DejaVuSans-Bold-37"/>
     </defs>
     <g transform="translate(454.191875 230.303)rotate(-90)scale(0.1 -0.1)">
      <use xlink:href="#DejaVuSans-Bold-69"/>
      <use x="68.310547" xlink:href="#DejaVuSans-Bold-99"/>
      <use x="127.587891" xlink:href="#DejaVuSans-Bold-99"/>
      <use x="186.865234" xlink:href="#DejaVuSans-Bold-101"/>
      <use x="254.6875" xlink:href="#DejaVuSans-Bold-110"/>
      <use x="325.878906" xlink:href="#DejaVuSans-Bold-116"/>
      <use x="373.681641" xlink:href="#DejaVuSans-Bold-114"/>
      <use x="422.998047" xlink:href="#DejaVuSans-Bold-105"/>
      <use x="457.275391" xlink:href="#DejaVuSans-Bold-99"/>
      <use x="516.552734" xlink:href="#DejaVuSans-Bold-116"/>
      <use x="564.355469" xlink:href="#DejaVuSans-Bold-121"/>
      <use x="629.541016" xlink:href="#DejaVuSans-Bold-32"/>
      <use x="664.355469" xlink:href="#DejaVuSans-Bold-67"/>
      <use x="737.744141" xlink:href="#DejaVuSans-Bold-68"/>
      <use x="820.751953" xlink:href="#DejaVuSans-Bold-70"/>
      <use x="889.0625" xlink:href="#DejaVuSans-Bold-32"/>
      <use x="923.876953" xlink:href="#DejaVuSans-Bold-40"/>
      <use x="969.580078" xlink:href="#DejaVuSans-Bold-37"/>
      <use x="1069.775391" xlink:href="#DejaVuSans-Bold-41"/>
     </g>
    </g>
   </g>
   <g id="patch_17">
    <path d="M 57.6 307.584 
L 57.6 41.472 
" style="fill:none;stroke:#000000;stroke-linecap:square;stroke-linejoin:miter;stroke-width:2;"/>
   </g>
   <g id="patch_18">
    <path d="M 414.72 307.584 
L 414.72 41.472 
" style="fill:none;stroke:#000000;stroke-linecap:square;stroke-linejoin:miter;stroke-width:2;"/>
   </g>
   <g id="patch_19">
    <path d="M 57.6 307.584 
L 414.72 307.584 
" style="fill:none;stroke:#000000;stroke-linecap:square;stroke-linejoin:miter;stroke-width:2;"/>
   </g>
   <g id="patch_20">
    <path d="M 57.6 41.472 
L 414.72 41.472 
" style="fill:none;stroke:#000000;stroke-linecap:square;stroke-linejoin:miter;stroke-width:2;"/>
   </g>
   <g id="line2d_20">
    <path clip-path="url(#p2cb5c913ed)" d="M 57.6 196.704 
L 57.932122 196.704 
L 58.264243 195.81696 
L 58.596365 194.4864 
L 58.928486 194.04288 
L 59.260608 194.04288 
L 59.59273 193.59936 
L 59.924851 192.2688 
L 60.589094 191.38176 
L 60.921216 189.60768 
L 61.253338 188.72064 
L 61.585459 186.94656 
L 61.917581 186.05952 
L 62.249702 185.616 
L 62.581824 183.84192 
L 62.913946 182.95488 
L 63.578189 182.06784 
L 63.91031 182.06784 
L 64.242432 180.29376 
L 64.574554 177.63264 
L 64.906675 177.18912 
L 65.238797 176.30208 
L 66.567283 174.528 
L 67.231526 174.528 
L 67.563648 174.08448 
L 67.89577 173.19744 
L 68.227891 169.20576 
L 68.560013 169.20576 
L 68.892134 168.31872 
L 69.224256 167.8752 
L 69.556378 167.8752 
L 69.888499 167.43168 
L 70.220621 165.6576 
L 70.552742 165.21408 
L 71.216986 163.44 
L 71.549107 163.44 
L 71.881229 160.33536 
L 72.21335 159.89184 
L 72.545472 158.56128 
L 72.877594 158.11776 
L 73.209715 157.23072 
L 73.541837 156.7872 
L 73.873958 156.7872 
L 74.20608 154.5696 
L 74.538202 154.5696 
L 74.870323 154.12608 
L 75.202445 152.352 
L 75.534566 151.46496 
L 77.195174 151.46496 
L 77.527296 151.02144 
L 77.859418 150.1344 
L 78.191539 148.80384 
L 78.523661 148.80384 
L 78.855782 145.6992 
L 79.187904 144.81216 
L 79.520026 143.03808 
L 79.852147 142.15104 
L 80.51639 141.264 
L 80.848512 139.93344 
L 81.180634 139.48992 
L 81.512755 138.60288 
L 82.176998 138.60288 
L 82.50912 135.94176 
L 83.505485 135.94176 
L 84.169728 135.05472 
L 84.50185 135.05472 
L 84.833971 134.6112 
L 85.166093 133.72416 
L 85.498214 133.28064 
L 85.830336 133.28064 
L 86.162458 131.50656 
L 87.158822 130.176 
L 87.490944 128.84544 
L 88.155187 127.9584 
L 89.151552 127.9584 
L 89.483674 124.85376 
L 89.815795 124.41024 
L 90.147917 123.5232 
L 90.480038 123.5232 
L 90.81216 123.07968 
L 91.476403 123.07968 
L 91.808525 122.19264 
L 92.80489 122.19264 
L 93.137011 117.75744 
L 95.793984 117.75744 
L 96.126106 116.8704 
L 96.458227 116.8704 
L 96.790349 113.32224 
L 97.12247 113.32224 
L 97.454592 112.4352 
L 97.786714 112.4352 
L 98.450957 110.66112 
L 99.1152 110.66112 
L 99.779443 109.77408 
L 100.111565 109.77408 
L 100.443686 108 
L 101.10793 108 
L 101.440051 106.66944 
L 102.104294 106.66944 
L 102.436416 105.7824 
L 102.768538 105.7824 
L 103.100659 105.33888 
L 103.432781 104.45184 
L 103.764902 102.67776 
L 104.429146 101.79072 
L 104.761267 101.79072 
L 105.42551 100.90368 
L 105.757632 100.90368 
L 106.089754 100.46016 
L 106.421875 100.46016 
L 106.753997 99.57312 
L 107.086118 99.1296 
L 107.41824 96.46848 
L 107.750362 96.46848 
L 108.082483 96.02496 
L 109.078848 96.02496 
L 109.41097 95.58144 
L 110.075213 95.58144 
L 110.407334 95.13792 
L 110.739456 95.13792 
L 111.071578 93.80736 
L 111.403699 93.36384 
L 113.396429 93.36384 
L 114.060672 92.4768 
L 114.392794 92.4768 
L 114.724915 90.70272 
L 117.049766 90.70272 
L 117.381888 90.2592 
L 117.71401 90.2592 
L 118.046131 88.48512 
L 119.042496 88.48512 
L 119.374618 88.0416 
L 120.038861 88.0416 
L 120.370982 87.59808 
L 121.367347 87.59808 
L 121.699469 85.824 
L 122.363712 84.93696 
L 124.356442 84.93696 
L 124.688563 84.49344 
L 125.020685 84.49344 
L 125.352806 82.27584 
L 125.684928 81.83232 
L 126.01705 81.83232 
L 126.349171 81.3888 
L 128.674022 81.3888 
L 129.006144 78.28416 
L 129.338266 78.28416 
L 129.670387 77.84064 
L 131.995238 77.84064 
L 132.32736 77.39712 
L 134.984333 77.39712 
L 135.316454 76.9536 
L 135.648576 76.9536 
L 135.980698 75.17952 
L 138.969792 75.17952 
L 139.301914 74.736 
L 139.634035 73.84896 
L 140.298278 73.84896 
L 140.6304 73.40544 
L 142.955251 73.40544 
L 143.287373 72.96192 
L 144.615859 72.96192 
L 145.280102 72.07488 
L 146.276467 72.07488 
L 146.94071 69.85728 
L 149.265562 69.85728 
L 149.597683 69.41376 
L 149.929805 69.41376 
L 150.261926 68.52672 
L 153.583142 68.52672 
L 153.915264 68.0832 
L 155.24375 68.0832 
L 155.575872 67.63968 
L 156.904358 67.63968 
L 157.568602 66.75264 
L 160.557696 66.75264 
L 160.889818 65.8656 
L 162.882547 65.8656 
L 163.214669 65.42208 
L 163.54679 65.42208 
L 163.878912 64.97856 
L 164.211034 64.97856 
L 164.543155 64.09152 
L 165.53952 64.09152 
L 165.871642 63.648 
L 166.535885 63.648 
L 166.868006 63.20448 
L 167.864371 63.20448 
L 168.196493 61.4304 
L 168.528614 61.4304 
L 168.860736 60.98688 
L 169.524979 60.98688 
L 169.857101 60.54336 
L 174.838925 60.54336 
L 175.171046 56.55168 
L 178.492262 56.55168 
L 178.824384 56.10816 
L 181.481357 56.10816 
L 181.813478 55.66464 
L 182.1456 55.66464 
L 182.477722 55.22112 
L 187.127424 55.22112 
L 187.459546 54.7776 
L 191.445005 54.7776 
L 191.777126 54.33408 
L 192.773491 54.33408 
L 193.437734 53.44704 
L 196.426829 53.44704 
L 196.75895 52.56 
L 201.076531 52.56 
L 201.408653 52.11648 
L 203.401382 52.11648 
L 203.733504 51.67296 
L 210.708058 51.67296 
L 211.040179 51.22944 
L 212.036544 51.22944 
L 212.368666 50.78592 
L 214.361395 50.78592 
L 214.693517 50.3424 
L 217.682611 50.3424 
L 218.014733 49.89888 
L 224.989286 49.89888 
L 225.65353 49.01184 
L 227.646259 49.01184 
L 227.978381 48.56832 
L 234.288691 48.56832 
L 234.620813 48.1248 
L 235.949299 48.1248 
L 236.281421 47.68128 
L 240.599002 47.68128 
L 240.931123 47.23776 
L 241.263245 47.23776 
L 241.595366 46.79424 
L 242.591731 46.79424 
L 242.923853 46.35072 
L 246.245069 46.35072 
L 246.57719 45.9072 
L 256.87296 45.9072 
L 257.205082 45.46368 
L 260.526298 45.46368 
L 260.858419 44.57664 
L 264.511757 44.57664 
L 264.843878 44.13312 
L 300.048768 44.13312 
L 300.38089 43.6896 
L 314.329997 43.6896 
L 314.662118 43.24608 
L 332.928806 43.24608 
L 333.260928 42.80256 
L 354.51671 42.80256 
L 354.848832 42.35904 
L 355.513075 42.35904 
L 355.845197 41.91552 
L 389.057357 41.91552 
L 389.389478 41.472 
L 389.389478 41.472 
" style="fill:none;stroke:#ff0000;stroke-linecap:square;stroke-width:2;"/>
   </g>
  </g>
 </g>
 <defs>
  <clipPath id="p2cb5c913ed">
   <rect height="266.112" width="357.12" x="57.6" y="41.472"/>
  </clipPath>
 </defs>
</svg>
