<?xml version="1.0" encoding="UTF-8" standalone="no"?>
<!-- Created with Inkscape (http://www.inkscape.org/) -->

<svg
   xmlns:dc="http://purl.org/dc/elements/1.1/"
   xmlns:cc="http://creativecommons.org/ns#"
   xmlns:rdf="http://www.w3.org/1999/02/22-rdf-syntax-ns#"
   xmlns:svg="http://www.w3.org/2000/svg"
   xmlns="http://www.w3.org/2000/svg"
   xmlns:sodipodi="http://sodipodi.sourceforge.net/DTD/sodipodi-0.dtd"
   xmlns:inkscape="http://www.inkscape.org/namespaces/inkscape"
   width="210mm"
   height="164mm"
   viewBox="0 0 210 164"
   version="1.1"
   id="svg8"
   inkscape:version="0.92.3 (2405546, 2018-03-11)"
   sodipodi:docname="conjugateTomajorminor.svg"
   inkscape:export-filename="/home/dean/Documents/exosims/PrototypePlottingUtilsEXOSIMS/SolarSystemdMag/conjugateTomajorminor.png"
   inkscape:export-xdpi="300"
   inkscape:export-ydpi="300">
  <defs
     id="defs2" />
  <sodipodi:namedview
     id="base"
     pagecolor="#ffffff"
     bordercolor="#666666"
     borderopacity="1.0"
     inkscape:pageopacity="0.0"
     inkscape:pageshadow="2"
     inkscape:zoom="0.49497475"
     inkscape:cx="51.535396"
     inkscape:cy="829.58322"
     inkscape:document-units="mm"
     inkscape:current-layer="layer1"
     showgrid="false"
     inkscape:window-width="1151"
     inkscape:window-height="1174"
     inkscape:window-x="988"
     inkscape:window-y="122"
     inkscape:window-maximized="0" />
  <metadata
     id="metadata5">
    <rdf:RDF>
      <cc:Work
         rdf:about="">
        <dc:format>image/svg+xml</dc:format>
        <dc:type
           rdf:resource="http://purl.org/dc/dcmitype/StillImage" />
        <dc:title></dc:title>
      </cc:Work>
    </rdf:RDF>
  </metadata>
  <g
     inkscape:label="Layer 1"
     inkscape:groupmode="layer"
     id="layer1"
     transform="translate(0,-133)">
    <path
       style="fill:none;stroke:#0000ff;stroke-width:0.75;stroke-linecap:butt;stroke-linejoin:miter;stroke-miterlimit:4;stroke-dasharray:none;stroke-opacity:1"
       d="M 154.40327,196.64787 C 23.245535,281.31454 23.245535,281.31454 23.245535,281.31454"
       id="path855"
       inkscape:connector-curvature="0" />
    <path
       style="fill:none;stroke:#0000fc;stroke-width:0.75;stroke-linecap:butt;stroke-linejoin:miter;stroke-miterlimit:4;stroke-dasharray:none;stroke-opacity:1"
       d="m 42.522322,213.27882 c 91.281248,54.0506 91.281248,54.0506 91.281248,54.0506"
       id="path823"
       inkscape:connector-curvature="0" />
    <path
       style="fill:none;stroke:#ff0000;stroke-width:0.75;stroke-linecap:butt;stroke-linejoin:miter;stroke-miterlimit:4;stroke-dasharray:none;stroke-opacity:1"
       d="m 72.004464,197.7818 c 30.616066,84.0997 30.616066,84.0997 30.616066,84.0997"
       id="path821"
       inkscape:connector-curvature="0" />
    <path
       style="fill:none;stroke:#ff0000;stroke-width:0.75;stroke-linecap:butt;stroke-linejoin:miter;stroke-miterlimit:4;stroke-dasharray:none;stroke-opacity:1"
       d="M 166.98352,210.91575 C 11.717262,267.14043 11.717262,267.14043 11.717262,267.14043"
       id="path819"
       inkscape:connector-curvature="0" />
    <path
       style="fill:none;fill-opacity:1;stroke:#fa0000;stroke-width:1.5;stroke-miterlimit:4;stroke-dasharray:none;stroke-dashoffset:0;stroke-opacity:1"
       id="path817"
       sodipodi:type="arc"
       sodipodi:cx="2.1577196"
       sodipodi:cy="255.3866"
       sodipodi:rx="82.398804"
       sodipodi:ry="44.979168"
       sodipodi:start="0"
       sodipodi:end="6.2830457"
       sodipodi:open="true"
       d="M 84.556523,255.3866 A 82.398804,44.979168 0 0 1 2.1605955,300.36576 82.398804,44.979168 0 0 1 -80.241084,255.38974 82.398804,44.979168 0 0 1 2.149092,210.40743 82.398804,44.979168 0 0 1 84.556523,255.38032"
       transform="rotate(-20.049215)" />
    <text
       xml:space="preserve"
       style="font-style:normal;font-weight:normal;font-size:5.45051384px;line-height:1.25;font-family:sans-serif;letter-spacing:0px;word-spacing:0px;fill:#000000;fill-opacity:1;stroke:none;stroke-width:0.13626285"
       x="140.8746"
       y="262.89215"
       id="text859"
       transform="scale(0.9633723,1.0380203)"><tspan
         sodipodi:role="line"
         id="tspan857"
         x="140.8746"
         y="262.89215"
         style="stroke-width:0.13626285">C'</tspan></text>
    <text
       xml:space="preserve"
       style="font-style:normal;font-weight:normal;font-size:5.45051432px;line-height:1.25;font-family:sans-serif;letter-spacing:0px;word-spacing:0px;fill:#000000;fill-opacity:1;stroke:none;stroke-width:0.13626286"
       x="38.743942"
       y="200.68481"
       id="text859-7"
       transform="scale(0.9633723,1.0380203)"><tspan
         sodipodi:role="line"
         id="tspan857-5"
         x="38.743942"
         y="200.68481"
         style="stroke-width:0.13626286">D'</tspan></text>
    <text
       xml:space="preserve"
       style="font-style:normal;font-weight:normal;font-size:5.45051432px;line-height:1.25;font-family:sans-serif;letter-spacing:0px;word-spacing:0px;fill:#000000;fill-opacity:1;stroke:none;stroke-width:0.13626286"
       x="150.35849"
       y="191.61275"
       id="text859-3"
       transform="scale(0.9633723,1.0380203)"><tspan
         sodipodi:role="line"
         id="tspan857-56"
         x="150.35849"
         y="191.61275"
         style="stroke-width:0.13626286">B'</tspan></text>
    <text
       xml:space="preserve"
       style="font-style:normal;font-weight:normal;font-size:5.45051432px;line-height:1.25;font-family:sans-serif;letter-spacing:0px;word-spacing:0px;fill:#000000;fill-opacity:1;stroke:none;stroke-width:0.13626286"
       x="18.692421"
       y="277.64224"
       id="text859-2"
       transform="scale(0.9633723,1.0380203)"><tspan
         sodipodi:role="line"
         id="tspan857-9"
         x="18.692421"
         y="277.64224"
         style="stroke-width:0.13626286">A'</tspan></text>
    <text
       xml:space="preserve"
       style="font-style:normal;font-weight:normal;font-size:5.45051432px;line-height:1.25;font-family:sans-serif;letter-spacing:0px;word-spacing:0px;fill:#000000;fill-opacity:1;stroke:none;stroke-width:0.13626286"
       x="84.83654"
       y="239.67816"
       id="text859-1"
       transform="scale(0.9633723,1.0380203)"><tspan
         sodipodi:role="line"
         id="tspan857-2"
         x="84.83654"
         y="239.67816"
         style="stroke-width:0.13626286">O'</tspan></text>
    <text
       xml:space="preserve"
       style="font-style:normal;font-weight:normal;font-size:5.45051432px;line-height:1.25;font-family:sans-serif;letter-spacing:0px;word-spacing:0px;fill:#000000;fill-opacity:1;stroke:none;stroke-width:0.13626286"
       x="73.304131"
       y="186.48366"
       id="text859-7-7"
       transform="scale(0.9633723,1.0380203)"><tspan
         sodipodi:role="line"
         id="tspan857-5-0"
         x="73.304131"
         y="186.48366"
         style="stroke-width:0.13626286">T</tspan></text>
    <text
       xml:space="preserve"
       style="font-style:normal;font-weight:normal;font-size:5.45051432px;line-height:1.25;font-family:sans-serif;letter-spacing:0px;word-spacing:0px;fill:#000000;fill-opacity:1;stroke:none;stroke-width:0.13626286"
       x="175.07634"
       y="203.265"
       id="text859-7-9"
       transform="scale(0.9633723,1.0380203)"><tspan
         sodipodi:role="line"
         id="tspan857-5-3"
         x="175.07634"
         y="203.265"
         style="stroke-width:0.13626286">R</tspan></text>
    <text
       xml:space="preserve"
       style="font-style:normal;font-weight:normal;font-size:5.45051432px;line-height:1.25;font-family:sans-serif;letter-spacing:0px;word-spacing:0px;fill:#000000;fill-opacity:1;stroke:none;stroke-width:0.13626286"
       x="106.41563"
       y="277.73059"
       id="text859-7-6"
       transform="scale(0.9633723,1.0380203)"><tspan
         sodipodi:role="line"
         id="tspan857-5-06"
         x="106.41563"
         y="277.73059"
         style="stroke-width:0.13626286">S</tspan></text>
    <text
       xml:space="preserve"
       style="font-style:normal;font-weight:normal;font-size:5.45051432px;line-height:1.25;font-family:sans-serif;letter-spacing:0px;word-spacing:0px;fill:#000000;fill-opacity:1;stroke:none;stroke-width:0.13626286"
       x="4.4054151"
       y="261.52625"
       id="text859-7-2"
       transform="scale(0.9633723,1.0380203)"><tspan
         sodipodi:role="line"
         id="tspan857-5-6"
         x="4.4054151"
         y="261.52625"
         style="stroke-width:0.13626286">I</tspan></text>
    <text
       xml:space="preserve"
       style="font-style:normal;font-weight:normal;font-size:5.45051432px;line-height:1.25;font-family:sans-serif;letter-spacing:0px;word-spacing:0px;fill:#000000;fill-opacity:1;stroke:none;stroke-width:0.13626286"
       x="135.43535"
       y="239.24176"
       id="text859-7-1"
       transform="scale(0.9633723,1.0380203)"><tspan
         sodipodi:role="line"
         id="tspan857-5-8"
         x="135.43535"
         y="239.24176"
         style="stroke-width:0.13626286">Q</tspan></text>
    <text
       xml:space="preserve"
       style="font-style:normal;font-weight:normal;font-size:5.45051432px;line-height:1.25;font-family:sans-serif;letter-spacing:0px;word-spacing:0px;fill:#000000;fill-opacity:1;stroke:none;stroke-width:0.13626286"
       x="186.30005"
       y="139.64545"
       id="text859-7-79"
       transform="scale(0.9633723,1.0380203)"><tspan
         sodipodi:role="line"
         id="tspan857-5-2"
         x="186.30005"
         y="139.64545"
         style="stroke-width:0.13626286">Q'</tspan></text>
    <path
       style="fill:none;stroke:#000000;stroke-width:0.5;stroke-linecap:butt;stroke-linejoin:miter;stroke-miterlimit:4;stroke-dasharray:none;stroke-opacity:1"
       d="m 154.40327,196.64787 c -26.9308,46.77455 -26.9308,46.77455 -26.9308,46.77455"
       id="path963"
       inkscape:connector-curvature="0" />
    <path
       style="fill:none;stroke:#000000;stroke-width:0.5;stroke-linecap:butt;stroke-linejoin:miter;stroke-miterlimit:4;stroke-dasharray:none;stroke-opacity:1"
       d="m 154.40327,196.64787 c 26.80547,-46.86404 26.80547,-46.86404 26.80547,-46.86404"
       id="path965"
       inkscape:connector-curvature="0" />
    <path
       style="fill:none;stroke:#000000;stroke-width:0.5;stroke-linecap:butt;stroke-linejoin:miter;stroke-miterlimit:4;stroke-dasharray:none;stroke-opacity:1"
       d="m 87.397134,239.72023 93.811606,-89.9364"
       id="path967"
       inkscape:connector-curvature="0" />
    <path
       style="fill:none;stroke:#000000;stroke-width:0.5;stroke-linecap:butt;stroke-linejoin:miter;stroke-miterlimit:4;stroke-dasharray:none;stroke-opacity:1"
       d="m 87.397134,239.72023 40.075336,3.70219"
       id="path969"
       inkscape:connector-curvature="0" />
    <path
       style="fill:#7d7d7d;fill-opacity:1;stroke:none;stroke-width:0.5;stroke-miterlimit:4;stroke-dasharray:none;stroke-dashoffset:0;stroke-opacity:1"
       id="path971"
       sodipodi:type="arc"
       sodipodi:cx="72.036606"
       sodipodi:cy="197.72063"
       sodipodi:rx="1.4699824"
       sodipodi:ry="1.4699824"
       sodipodi:start="0"
       sodipodi:end="6.2830457"
       sodipodi:open="true"
       d="m 73.506588,197.72063 a 1.4699824,1.4699824 0 0 1 -1.469931,1.46998 1.4699824,1.4699824 0 0 1 -1.470034,-1.46988 1.4699824,1.4699824 0 0 1 1.469829,-1.47009 1.4699824,1.4699824 0 0 1 1.470136,1.46978" />
    <path
       style="fill:#7d7d7d;fill-opacity:1;stroke:none;stroke-width:0.5;stroke-miterlimit:4;stroke-dasharray:none;stroke-dashoffset:0;stroke-opacity:1"
       id="path971-2"
       sodipodi:type="arc"
       sodipodi:cx="42.763123"
       sodipodi:cy="212.45706"
       sodipodi:rx="1.4699824"
       sodipodi:ry="1.4699824"
       sodipodi:start="0"
       sodipodi:end="6.2830457"
       sodipodi:open="true"
       d="m 44.233105,212.45706 a 1.4699824,1.4699824 0 0 1 -1.469931,1.46998 1.4699824,1.4699824 0 0 1 -1.470034,-1.46988 1.4699824,1.4699824 0 0 1 1.469829,-1.47008 1.4699824,1.4699824 0 0 1 1.470136,1.46978" />
    <path
       style="fill:#7d7d7d;fill-opacity:1;stroke:none;stroke-width:0.5;stroke-miterlimit:4;stroke-dasharray:none;stroke-dashoffset:0;stroke-opacity:1"
       id="path971-3"
       sodipodi:type="arc"
       sodipodi:cx="11.960311"
       sodipodi:cy="267.08054"
       sodipodi:rx="1.4699824"
       sodipodi:ry="1.4699824"
       sodipodi:start="0"
       sodipodi:end="6.2830457"
       sodipodi:open="true"
       d="m 13.430293,267.08054 a 1.4699824,1.4699824 0 0 1 -1.469931,1.46998 1.4699824,1.4699824 0 0 1 -1.470033,-1.46988 1.4699824,1.4699824 0 0 1 1.469828,-1.47009 1.4699824,1.4699824 0 0 1 1.470136,1.46978" />
    <path
       style="fill:#7d7d7d;fill-opacity:1;stroke:none;stroke-width:0.5;stroke-miterlimit:4;stroke-dasharray:none;stroke-dashoffset:0;stroke-opacity:1"
       id="path971-7"
       sodipodi:type="arc"
       sodipodi:cx="23.486309"
       sodipodi:cy="281.27966"
       sodipodi:rx="1.4699824"
       sodipodi:ry="1.4699824"
       sodipodi:start="0"
       sodipodi:end="6.2830457"
       sodipodi:open="true"
       d="m 24.956291,281.27966 a 1.4699824,1.4699824 0 0 1 -1.469931,1.46999 1.4699824,1.4699824 0 0 1 -1.470033,-1.46988 1.4699824,1.4699824 0 0 1 1.469828,-1.47009 1.4699824,1.4699824 0 0 1 1.470136,1.46978" />
    <path
       style="fill:#7d7d7d;fill-opacity:1;stroke:none;stroke-width:0.5;stroke-miterlimit:4;stroke-dasharray:none;stroke-dashoffset:0;stroke-opacity:1"
       id="path971-5"
       sodipodi:type="arc"
       sodipodi:cx="87.347023"
       sodipodi:cy="239.90245"
       sodipodi:rx="1.4699824"
       sodipodi:ry="1.4699824"
       sodipodi:start="0"
       sodipodi:end="6.2830457"
       sodipodi:open="true"
       d="m 88.817005,239.90245 a 1.4699824,1.4699824 0 0 1 -1.469931,1.46998 1.4699824,1.4699824 0 0 1 -1.470033,-1.46988 1.4699824,1.4699824 0 0 1 1.469828,-1.47008 1.4699824,1.4699824 0 0 1 1.470136,1.46978" />
    <path
       style="fill:#7d7d7d;fill-opacity:1;stroke:none;stroke-width:0.5;stroke-miterlimit:4;stroke-dasharray:none;stroke-dashoffset:0;stroke-opacity:1"
       id="path971-9"
       sodipodi:type="arc"
       sodipodi:cx="127.45416"
       sodipodi:cy="243.39346"
       sodipodi:rx="1.4699824"
       sodipodi:ry="1.4699824"
       sodipodi:start="0"
       sodipodi:end="6.2830457"
       sodipodi:open="true"
       d="m 128.92414,243.39346 a 1.4699824,1.4699824 0 0 1 -1.46993,1.46999 1.4699824,1.4699824 0 0 1 -1.47003,-1.46988 1.4699824,1.4699824 0 0 1 1.46983,-1.47009 1.4699824,1.4699824 0 0 1 1.47013,1.46978" />
    <path
       style="fill:#7d7d7d;fill-opacity:1;stroke:none;stroke-width:0.5;stroke-miterlimit:4;stroke-dasharray:none;stroke-dashoffset:0;stroke-opacity:1"
       id="path971-22"
       sodipodi:type="arc"
       sodipodi:cx="181.04169"
       sodipodi:cy="149.91685"
       sodipodi:rx="1.4699824"
       sodipodi:ry="1.4699824"
       sodipodi:start="0"
       sodipodi:end="6.2830457"
       sodipodi:open="true"
       d="m 182.51167,149.91685 a 1.4699824,1.4699824 0 0 1 -1.46993,1.46999 1.4699824,1.4699824 0 0 1 -1.47004,-1.46988 1.4699824,1.4699824 0 0 1 1.46983,-1.47009 1.4699824,1.4699824 0 0 1 1.47014,1.46978" />
    <path
       style="fill:#7d7d7d;fill-opacity:1;stroke:none;stroke-width:0.5;stroke-miterlimit:4;stroke-dasharray:none;stroke-dashoffset:0;stroke-opacity:1"
       id="path971-8"
       sodipodi:type="arc"
       sodipodi:cx="154.48178"
       sodipodi:cy="196.58813"
       sodipodi:rx="1.4699824"
       sodipodi:ry="1.4699824"
       sodipodi:start="0"
       sodipodi:end="6.2830457"
       sodipodi:open="true"
       d="m 155.95176,196.58813 a 1.4699824,1.4699824 0 0 1 -1.46993,1.46999 1.4699824,1.4699824 0 0 1 -1.47003,-1.46988 1.4699824,1.4699824 0 0 1 1.46983,-1.47009 1.4699824,1.4699824 0 0 1 1.47013,1.46978" />
    <path
       style="fill:#7d7d7d;fill-opacity:1;stroke:none;stroke-width:0.5;stroke-miterlimit:4;stroke-dasharray:none;stroke-dashoffset:0;stroke-opacity:1"
       id="path971-97"
       sodipodi:type="arc"
       sodipodi:cx="166.94324"
       sodipodi:cy="210.92024"
       sodipodi:rx="1.4699824"
       sodipodi:ry="1.4699824"
       sodipodi:start="0"
       sodipodi:end="6.2830457"
       sodipodi:open="true"
       d="m 168.41322,210.92024 a 1.4699824,1.4699824 0 0 1 -1.46993,1.46998 1.4699824,1.4699824 0 0 1 -1.47004,-1.46988 1.4699824,1.4699824 0 0 1 1.46983,-1.47008 1.4699824,1.4699824 0 0 1 1.47014,1.46978" />
    <path
       style="fill:#7d7d7d;fill-opacity:1;stroke:none;stroke-width:0.5;stroke-miterlimit:4;stroke-dasharray:none;stroke-dashoffset:0;stroke-opacity:1"
       id="path971-36"
       sodipodi:type="arc"
       sodipodi:cx="133.56795"
       sodipodi:cy="267.31442"
       sodipodi:rx="1.4699824"
       sodipodi:ry="1.4699824"
       sodipodi:start="0"
       sodipodi:end="6.2830457"
       sodipodi:open="true"
       d="m 135.03793,267.31442 a 1.4699824,1.4699824 0 0 1 -1.46993,1.46998 1.4699824,1.4699824 0 0 1 -1.47003,-1.46987 1.4699824,1.4699824 0 0 1 1.46982,-1.47009 1.4699824,1.4699824 0 0 1 1.47014,1.46978" />
    <path
       style="fill:#7d7d7d;fill-opacity:1;stroke:none;stroke-width:0.5;stroke-miterlimit:4;stroke-dasharray:none;stroke-dashoffset:0;stroke-opacity:1"
       id="path971-1"
       sodipodi:type="arc"
       sodipodi:cx="102.76514"
       sodipodi:cy="282.31534"
       sodipodi:rx="1.4699824"
       sodipodi:ry="1.4699824"
       sodipodi:start="0"
       sodipodi:end="6.2830457"
       sodipodi:open="true"
       d="m 104.23512,282.31534 a 1.4699824,1.4699824 0 0 1 -1.46993,1.46998 1.4699824,1.4699824 0 0 1 -1.47004,-1.46988 1.4699824,1.4699824 0 0 1 1.46983,-1.47008 1.4699824,1.4699824 0 0 1 1.47014,1.46977" />
  </g>
</svg>
