<?xml version="1.0" encoding="UTF-8" standalone="no"?>
<!-- Created with Inkscape (http://www.inkscape.org/) -->

<svg
   xmlns:dc="http://purl.org/dc/elements/1.1/"
   xmlns:cc="http://creativecommons.org/ns#"
   xmlns:rdf="http://www.w3.org/1999/02/22-rdf-syntax-ns#"
   xmlns:svg="http://www.w3.org/2000/svg"
   xmlns="http://www.w3.org/2000/svg"
   xmlns:sodipodi="http://sodipodi.sourceforge.net/DTD/sodipodi-0.dtd"
   xmlns:inkscape="http://www.inkscape.org/namespaces/inkscape"
   version="1.1"
   id="svg2"
   xml:space="preserve"
   width="377.33334"
   height="230.66667"
   viewBox="0 0 377.33334 230.66667"
   sodipodi:docname="FourIntersectionEllipse.svg"
   inkscape:version="0.92.3 (2405546, 2018-03-11)"><metadata
     id="metadata8"><rdf:RDF><cc:Work
         rdf:about=""><dc:format>image/svg+xml</dc:format><dc:type
           rdf:resource="http://purl.org/dc/dcmitype/StillImage" /><dc:title></dc:title></cc:Work></rdf:RDF></metadata><defs
     id="defs6" /><sodipodi:namedview
     pagecolor="#ffffff"
     bordercolor="#666666"
     borderopacity="1"
     objecttolerance="10"
     gridtolerance="10"
     guidetolerance="10"
     inkscape:pageopacity="0"
     inkscape:pageshadow="2"
     inkscape:window-width="1776"
     inkscape:window-height="1223"
     id="namedview4"
     showgrid="false"
     inkscape:zoom="5.4119903"
     inkscape:cx="239.00484"
     inkscape:cy="93.732525"
     inkscape:window-x="3486"
     inkscape:window-y="59"
     inkscape:window-maximized="0"
     inkscape:current-layer="g76" /><g
     id="g10"
     inkscape:groupmode="layer"
     inkscape:label="ink_ext_XXXXXX"
     transform="matrix(1.3333333,0,0,-1.3333333,0,230.66667)"><g
       id="g12"
       transform="scale(0.1)"><path
         d="m 10.3516,757.539 c 2793.7484,0 2793.7484,0 2793.7484,0"
         style="fill:none;stroke:#7d00ff;stroke-width:7.5;stroke-linecap:butt;stroke-linejoin:miter;stroke-miterlimit:4;stroke-dasharray:none;stroke-opacity:1"
         id="path14"
         inkscape:connector-curvature="0" /><path
         d="M 1409.38,42.3008 C 1408.55,1472.73 1408.55,1472.73 1408.55,1472.73"
         style="fill:none;stroke:#7d00ff;stroke-width:7.51180983;stroke-linecap:butt;stroke-linejoin:miter;stroke-miterlimit:4;stroke-dasharray:none;stroke-opacity:1"
         id="path16"
         inkscape:connector-curvature="0" /><path
         d="M 1409.34,42.3008 C 636.91,43.5898 12.7695,365.512 15.3086,761.289 17.8516,1157.03 646.09,1476.84 1418.52,1475.55 2190.94,1474.22 2815.08,1152.34 2812.54,756.559 2810.04,360.82 2181.8,41.0195 1409.38,42.3008"
         style="fill:none;stroke:#000001;stroke-width:19.1753006;stroke-linecap:butt;stroke-linejoin:miter;stroke-miterlimit:4;stroke-dasharray:none;stroke-opacity:1"
         id="path18"
         inkscape:connector-curvature="0" /><path
         d="m 2725.04,863.32 c 0,-469.648 -380.74,-850.3903 -850.39,-850.3903 -469.65,0 -850.39,380.7423 -850.39,850.3903 0,469.69 380.74,850.39 850.39,850.39 469.65,0 850.39,-380.7 850.39,-850.39 z"
         style="fill:none;stroke:#00af00;stroke-width:18.85040092;stroke-linecap:butt;stroke-linejoin:miter;stroke-miterlimit:4;stroke-dasharray:none;stroke-opacity:1"
         id="path20"
         inkscape:connector-curvature="0" /><path
         d="m 2725.08,861.988 c -1708.91,0 -1708.91,0 -1708.91,0"
         style="fill:none;stroke:#000000;stroke-width:7.5;stroke-linecap:butt;stroke-linejoin:miter;stroke-miterlimit:4;stroke-dasharray:30, 7.5;stroke-dashoffset:0;stroke-opacity:1"
         id="path22"
         inkscape:connector-curvature="0" /><path
         d="m 1875.62,1711.88 c 0,-1691.4112 0,-1691.4112 0,-1691.4112"
         style="fill:none;stroke:#000000;stroke-width:7.5;stroke-linecap:butt;stroke-linejoin:miter;stroke-miterlimit:4;stroke-dasharray:30, 7.5;stroke-dashoffset:0;stroke-opacity:1"
         id="path24"
         inkscape:connector-curvature="0" /><path
         d="m 1890.51,861.988 c 0,-8.008 -6.49,-14.527 -14.53,-14.527 -8.01,0 -14.53,6.519 -14.53,14.527 0,8.051 6.52,14.532 14.53,14.532 8.04,0 14.53,-6.481 14.53,-14.532 z"
         style="fill:none;stroke:#ff7d00;stroke-width:27.6196003;stroke-linecap:butt;stroke-linejoin:miter;stroke-miterlimit:4;stroke-dasharray:none;stroke-opacity:1"
         id="path26"
         inkscape:connector-curvature="0" /><path
         d="m 1278.3877,969.379 c 583.2123,0 583.2123,0 583.2123,0"
         style="fill:none;stroke:#000000;stroke-width:7.43902349;stroke-linecap:butt;stroke-linejoin:miter;stroke-miterlimit:4;stroke-dasharray:none;stroke-opacity:1"
         id="path28"
         inkscape:connector-curvature="0" /><path
         d="m 1782.93,1002.03 88.44,-32.499 -88.44,-32.543 c 14.14,19.223 14.06,45.473 0,65.042 z"
         style="fill:#000000;fill-opacity:1;fill-rule:evenodd;stroke:none"
         id="path34"
         inkscape:connector-curvature="0" /><path
         d="m 1782.93,1002.03 88.44,-32.499 -88.44,-32.543 c 14.14,19.223 14.06,45.473 0,65.042 z"
         style="fill:none;stroke:#000000;stroke-width:5.05935001;stroke-linecap:butt;stroke-linejoin:round;stroke-miterlimit:4;stroke-dasharray:none;stroke-opacity:1"
         id="path36"
         inkscape:connector-curvature="0" /><path
         d="m 2695.82,969.379 c -834.22,0 -834.22,0 -834.22,0"
         style="fill:none;stroke:#000000;stroke-width:7.50379992;stroke-linecap:butt;stroke-linejoin:miter;stroke-miterlimit:4;stroke-dasharray:none;stroke-opacity:1"
         id="path38"
         inkscape:connector-curvature="0" /><path
         d="m 2616.91,1002.15 88.71,-32.619 -88.71,-32.621 c 14.18,19.262 14.07,45.59 0,65.24 z"
         style="fill:#000000;fill-opacity:1;fill-rule:evenodd;stroke:none"
         id="path40"
         inkscape:connector-curvature="0" /><path
         d="m 2616.91,1002.15 88.71,-32.619 -88.71,-32.621 c 14.18,19.262 14.07,45.59 0,65.24 z"
         style="fill:none;stroke:#000000;stroke-width:5.07410002;stroke-linecap:butt;stroke-linejoin:round;stroke-miterlimit:4;stroke-dasharray:none;stroke-opacity:1"
         id="path42"
         inkscape:connector-curvature="0" /><path
         d="m 1626.6835,485.469 c 236.0865,0 236.0865,0 236.0865,0"
         style="fill:none;stroke:#000000;stroke-width:7.37206507;stroke-linecap:butt;stroke-linejoin:miter;stroke-miterlimit:4;stroke-dasharray:none;stroke-opacity:1"
         id="path48"
         inkscape:connector-curvature="0" /><path
         d="m 1785.82,517.379 86.48,-31.789 -86.48,-31.801 c 13.83,18.793 13.75,44.449 0,63.59 z"
         style="fill:#000000;fill-opacity:1;fill-rule:evenodd;stroke:none"
         id="path54"
         inkscape:connector-curvature="0" /><path
         d="m 1785.82,517.379 86.48,-31.789 -86.48,-31.801 c 13.83,18.793 13.75,44.449 0,63.59 z"
         style="fill:none;stroke:#000000;stroke-width:4.94786978;stroke-linecap:butt;stroke-linejoin:round;stroke-miterlimit:4;stroke-dasharray:none;stroke-opacity:1"
         id="path56"
         inkscape:connector-curvature="0" /><path
         d="m 2523.83,485.469 c -661.06,0 -661.06,0 -661.06,0"
         style="fill:none;stroke:#000000;stroke-width:7.48960495;stroke-linecap:butt;stroke-linejoin:miter;stroke-miterlimit:4;stroke-dasharray:none;stroke-opacity:1"
         id="path58"
         inkscape:connector-curvature="0" /><path
         d="m 2445.12,518.121 88.47,-32.531 -88.47,-32.539 c 14.14,19.219 14.06,45.5 0,65.07 z"
         style="fill:#000000;fill-opacity:1;fill-rule:evenodd;stroke:none"
         id="path60"
         inkscape:connector-curvature="0" /><path
         d="m 2445.12,518.121 88.47,-32.531 -88.47,-32.539 c 14.14,19.219 14.06,45.5 0,65.07 z"
         style="fill:none;stroke:#000000;stroke-width:5.06226015;stroke-linecap:butt;stroke-linejoin:round;stroke-miterlimit:4;stroke-dasharray:none;stroke-opacity:1"
         id="path62"
         inkscape:connector-curvature="0" /><path
         d="m 1278.67,1474.06 c -2.69,-570.54 -2.69,-570.54 -2.69,-570.54"
         style="fill:none;stroke:#000000;stroke-width:7.5;stroke-linecap:butt;stroke-linejoin:miter;stroke-miterlimit:4;stroke-dasharray:none;stroke-opacity:1"
         id="path68"
         inkscape:connector-curvature="0" /><path
         d="m 2709.02,1024.06 c 1.33,-111.169 1.33,-111.169 1.33,-111.169"
         style="fill:none;stroke:#000000;stroke-width:7.5;stroke-linecap:butt;stroke-linejoin:miter;stroke-miterlimit:4;stroke-dasharray:none;stroke-opacity:1"
         id="path70"
         inkscape:connector-curvature="0" /><path
         d="m 1624.18,51.7188 c 0,483.4802 0,483.4802 0,483.4802"
         style="fill:none;stroke:#000000;stroke-width:7.5;stroke-linecap:butt;stroke-linejoin:miter;stroke-miterlimit:4;stroke-dasharray:none;stroke-opacity:1"
         id="path72"
         inkscape:connector-curvature="0" /><path
         d="m 2541.6,332.969 -1.33,187.5"
         style="fill:none;stroke:#000000;stroke-width:7.5;stroke-linecap:butt;stroke-linejoin:miter;stroke-miterlimit:4;stroke-dasharray:none;stroke-opacity:1"
         id="path74"
         inkscape:connector-curvature="0" /><g
         id="g76"
         transform="scale(10)"><text
           transform="matrix(1,0,0,-1,152.393,102.895)"
           style="font-variant:normal;font-weight:normal;font-size:10.57470036px;font-family:'DejaVu Sans';-inkscape-font-specification:DejaVuSans;writing-mode:lr-tb;fill:#000000;fill-opacity:1;fill-rule:nonzero;stroke:none"
           id="text80"><tspan
             x="0"
             y="0"
             id="tspan78">Δ</tspan></text>
<text
           transform="matrix(1,0,0,-1,159.62698,102.895)"
           style="font-variant:normal;font-weight:normal;font-size:10.57470036px;font-family:'DejaVu Sans';-inkscape-font-specification:DejaVuSans;writing-mode:lr-tb;fill:#000000;fill-opacity:1;fill-rule:nonzero;stroke:none"
           id="text84"><tspan
             x="0"
             y="0"
             id="tspan82">x</tspan></text>
<text
           transform="matrix(1,0,0,-1,165.8801,100.78016)"
           style="font-variant:normal;font-weight:normal;font-size:6.87354994px;font-family:'DejaVu Sans';-inkscape-font-specification:DejaVuSans;writing-mode:lr-tb;fill:#000000;fill-opacity:1;fill-rule:nonzero;stroke:none"
           id="text88"><tspan
             x="0"
             y="0"
             id="tspan86">0</tspan></text>
<text
           transform="matrix(1,0,0,-1,222.3824,101.93368)"
           style="font-variant:normal;font-weight:normal;font-size:10.57470036px;font-family:'DejaVu Sans';-inkscape-font-specification:DejaVuSans;writing-mode:lr-tb;fill:#000000;fill-opacity:1;fill-rule:nonzero;stroke:none"
           id="text92"><tspan
             x="0"
             y="0"
             id="tspan90">Δ</tspan></text>
<text
           transform="matrix(1,0,0,-1,229.61638,101.93368)"
           style="font-variant:normal;font-weight:normal;font-size:10.57470036px;font-family:'DejaVu Sans';-inkscape-font-specification:DejaVuSans;writing-mode:lr-tb;fill:#000000;fill-opacity:1;fill-rule:nonzero;stroke:none"
           id="text96"><tspan
             x="0"
             y="0"
             id="tspan94">x</tspan></text>
<text
           transform="matrix(1,0,0,-1,235.86911,99.81884)"
           style="font-variant:normal;font-weight:normal;font-size:6.87354994px;font-family:'DejaVu Sans';-inkscape-font-specification:DejaVuSans;writing-mode:lr-tb;fill:#000000;fill-opacity:1;fill-rule:nonzero;stroke:none"
           id="text100"><tspan
             x="0"
             y="0"
             id="tspan98">3</tspan></text>
<text
           transform="matrix(1,0,0,-1,165.15001,56.88524)"
           style="font-variant:normal;font-weight:normal;font-size:10.57470036px;font-family:'DejaVu Sans';-inkscape-font-specification:DejaVuSans;writing-mode:lr-tb;fill:#000000;fill-opacity:1;fill-rule:nonzero;stroke:none"
           id="text104"><tspan
             x="0"
             y="0"
             id="tspan102">Δ</tspan></text>
<text
           transform="matrix(1,0,0,-1,172.38399,56.88524)"
           style="font-variant:normal;font-weight:normal;font-size:10.57470036px;font-family:'DejaVu Sans';-inkscape-font-specification:DejaVuSans;writing-mode:lr-tb;fill:#000000;fill-opacity:1;fill-rule:nonzero;stroke:none"
           id="text108"><tspan
             x="0"
             y="0"
             id="tspan106">x</tspan></text>
<text
           transform="matrix(1,0,0,-1,178.63672,54.77001)"
           style="font-variant:normal;font-weight:normal;font-size:6.87354994px;font-family:'DejaVu Sans';-inkscape-font-specification:DejaVuSans;writing-mode:lr-tb;fill:#000000;fill-opacity:1;fill-rule:nonzero;stroke:none"
           id="text112"><tspan
             x="0"
             y="0"
             id="tspan110">1</tspan></text>
<text
           transform="matrix(1,0,0,-1,213.09612,56.61728)"
           style="font-variant:normal;font-weight:normal;font-size:10.57470036px;font-family:'DejaVu Sans';-inkscape-font-specification:DejaVuSans;writing-mode:lr-tb;fill:#000000;fill-opacity:1;fill-rule:nonzero;stroke:none"
           id="text116"><tspan
             x="0"
             y="0"
             id="tspan114">Δ</tspan></text>
<text
           transform="matrix(1,0,0,-1,220.3301,56.61728)"
           style="font-variant:normal;font-weight:normal;font-size:10.57470036px;font-family:'DejaVu Sans';-inkscape-font-specification:DejaVuSans;writing-mode:lr-tb;fill:#000000;fill-opacity:1;fill-rule:nonzero;stroke:none"
           id="text120"><tspan
             x="0"
             y="0"
             id="tspan118">x</tspan></text>
<text
           transform="matrix(1,0,0,-1,226.58322,54.50244)"
           style="font-variant:normal;font-weight:normal;font-size:6.87354994px;font-family:'DejaVu Sans';-inkscape-font-specification:DejaVuSans;writing-mode:lr-tb;fill:#000000;fill-opacity:1;fill-rule:nonzero;stroke:none"
           id="text124"><tspan
             x="0"
             y="0"
             id="tspan122">2</tspan></text>
</g><path
         d="m 2555.98,334.531 c 0,-8.011 -6.53,-14.531 -14.53,-14.531 -8.05,0 -14.54,6.52 -14.54,14.531 0,8.051 6.49,14.528 14.54,14.528 8,0 14.53,-6.477 14.53,-14.528 z"
         style="fill:none;stroke:#00af00;stroke-width:27.6196003;stroke-linecap:butt;stroke-linejoin:miter;stroke-miterlimit:4;stroke-dasharray:none;stroke-opacity:1"
         id="path126"
         inkscape:connector-curvature="0" /><path
         d="m 1639.02,52.4609 c 0,-8.0507 -6.48,-14.5703 -14.53,-14.5703 -8.01,0 -14.53,6.5196 -14.53,14.5703 0,8.0079 6.52,14.5274 14.53,14.5274 8.05,0 14.53,-6.5195 14.53,-14.5274 z"
         style="fill:none;stroke:#00af00;stroke-width:27.6196003;stroke-linecap:butt;stroke-linejoin:miter;stroke-miterlimit:4;stroke-dasharray:none;stroke-opacity:1"
         id="path128"
         inkscape:connector-curvature="0" /><path
         d="m 1294.18,1475 c 0,-8.01 -6.52,-14.53 -14.57,-14.53 -8.01,0 -14.53,6.52 -14.53,14.53 0,8.05 6.52,14.53 14.53,14.53 8.05,0 14.57,-6.48 14.57,-14.53"
         style="fill:none;stroke:#00af00;stroke-width:27.6196003;stroke-linecap:butt;stroke-linejoin:miter;stroke-miterlimit:4;stroke-dasharray:none;stroke-opacity:1"
         id="path130"
         inkscape:connector-curvature="0" /><path
         d="m 2723.67,1025.47 c 0,-8.01 -6.48,-14.53 -14.53,-14.53 -8.01,0 -14.53,6.52 -14.53,14.53 0,8.05 6.52,14.53 14.53,14.53 8.05,0 14.53,-6.48 14.53,-14.53 z"
         style="fill:none;stroke:#00af00;stroke-width:27.6196003;stroke-linecap:butt;stroke-linejoin:miter;stroke-miterlimit:4;stroke-dasharray:none;stroke-opacity:1"
         id="path132"
         inkscape:connector-curvature="0" /></g></g></svg>