<?xml version="1.0" encoding="UTF-8" standalone="no"?>
<!-- Created with Inkscape (http://www.inkscape.org/) -->

<svg
   xmlns:dc="http://purl.org/dc/elements/1.1/"
   xmlns:cc="http://creativecommons.org/ns#"
   xmlns:rdf="http://www.w3.org/1999/02/22-rdf-syntax-ns#"
   xmlns:svg="http://www.w3.org/2000/svg"
   xmlns="http://www.w3.org/2000/svg"
   xmlns:sodipodi="http://sodipodi.sourceforge.net/DTD/sodipodi-0.dtd"
   xmlns:inkscape="http://www.inkscape.org/namespaces/inkscape"
   version="1.1"
   id="svg2"
   xml:space="preserve"
   width="385.33334"
   height="288"
   viewBox="0 0 385.33334 288"
   sodipodi:docname="FourIntersectionEllipse_rare.svg"
   inkscape:version="0.92.3 (2405546, 2018-03-11)"><metadata
     id="metadata8"><rdf:RDF><cc:Work
         rdf:about=""><dc:format>image/svg+xml</dc:format><dc:type
           rdf:resource="http://purl.org/dc/dcmitype/StillImage" /><dc:title></dc:title></cc:Work></rdf:RDF></metadata><defs
     id="defs6" /><sodipodi:namedview
     pagecolor="#ffffff"
     bordercolor="#666666"
     borderopacity="1"
     objecttolerance="10"
     gridtolerance="10"
     guidetolerance="10"
     inkscape:pageopacity="0"
     inkscape:pageshadow="2"
     inkscape:window-width="1534"
     inkscape:window-height="1139"
     id="namedview4"
     showgrid="false"
     inkscape:zoom="4.6354778"
     inkscape:cx="323.00368"
     inkscape:cy="97.209719"
     inkscape:window-x="3530"
     inkscape:window-y="187"
     inkscape:window-maximized="0"
     inkscape:current-layer="g12" /><g
     id="g10"
     inkscape:groupmode="layer"
     inkscape:label="ink_ext_XXXXXX"
     transform="matrix(1.3333333,0,0,-1.3333333,0,288)"><g
       id="g12"
       transform="scale(0.1)"><path
         d="m 10.3516,737.539 c 2793.7484,0 2793.7484,0 2793.7484,0"
         style="fill:none;stroke:#7d00ff;stroke-width:7.5;stroke-linecap:butt;stroke-linejoin:miter;stroke-miterlimit:4;stroke-dasharray:none;stroke-opacity:1"
         id="path14"
         inkscape:connector-curvature="0" /><path
         d="M 1409.38,22.3008 C 1408.55,1452.73 1408.55,1452.73 1408.55,1452.73"
         style="fill:none;stroke:#7d00ff;stroke-width:7.51180983;stroke-linecap:butt;stroke-linejoin:miter;stroke-miterlimit:4;stroke-dasharray:none;stroke-opacity:1"
         id="path16"
         inkscape:connector-curvature="0" /><path
         d="M 1409.34,22.3008 C 636.91,23.5898 12.7695,345.512 15.3086,741.289 17.8516,1137.03 646.09,1456.84 1418.52,1455.55 2190.94,1454.22 2815.08,1132.34 2812.54,736.559 2810.04,340.82 2181.8,21.0195 1409.38,22.3008"
         style="fill:none;stroke:#000001;stroke-width:19.1753006;stroke-linecap:butt;stroke-linejoin:miter;stroke-miterlimit:4;stroke-dasharray:none;stroke-opacity:1"
         id="path18"
         inkscape:connector-curvature="0" /><path
         d="M 2883.4,1083.09 C 2883.4,495.621 2407.19,19.4102 1819.73,19.4102 1232.3,19.4102 756.09,495.621 756.09,1083.09 c 0,587.42 476.21,1063.63 1063.64,1063.63 587.46,0 1063.67,-476.21 1063.67,-1063.63 z"
         style="fill:none;stroke:#00af00;stroke-width:11.33860016;stroke-linecap:butt;stroke-linejoin:miter;stroke-miterlimit:4;stroke-dasharray:none;stroke-opacity:1"
         id="path20"
         inkscape:connector-curvature="0" /><path
         d="m 2885.82,1096.45 c -2126.8,0 -2126.8,0 -2126.8,0"
         style="fill:none;stroke:#000000;stroke-width:8.36682987;stroke-linecap:butt;stroke-linejoin:miter;stroke-miterlimit:4;stroke-dasharray:33.4673, 8.36683;stroke-dashoffset:0;stroke-opacity:1"
         id="path22"
         inkscape:connector-curvature="0" /><path
         d="m 1822.07,2147.23 c 0,-2136.0191 0,-2136.0191 0,-2136.0191"
         style="fill:none;stroke:#000000;stroke-width:8.42837048;stroke-linecap:butt;stroke-linejoin:miter;stroke-miterlimit:4;stroke-dasharray:33.7135, 8.42837;stroke-dashoffset:0;stroke-opacity:1"
         id="path24"
         inkscape:connector-curvature="0" /><path
         d="m 1836.95,1093.79 c 0,-8.05 -6.52,-14.53 -14.53,-14.53 -8.04,0 -14.53,6.48 -14.53,14.53 0,8.01 6.49,14.53 14.53,14.53 8.01,0 14.53,-6.52 14.53,-14.53 z"
         style="fill:none;stroke:#ff7d00;stroke-width:27.6196003;stroke-linecap:butt;stroke-linejoin:miter;stroke-miterlimit:4;stroke-dasharray:none;stroke-opacity:1"
         id="path26"
         inkscape:connector-curvature="0" /><path
         d="m 797.34,949.379 c 1022.07,0 1022.07,0 1022.07,0"
         style="fill:none;stroke:#000000;stroke-width:6.00000015;stroke-linecap:butt;stroke-linejoin:miter;stroke-miterlimit:4;stroke-dasharray:none;stroke-opacity:1"
         id="path28"
         inkscape:connector-curvature="0" /><path
         d="M 865.512,974.41 797.34,949.379 865.512,924.34 c -10.903,14.762 -10.821,35 0,50.07 z"
         style="fill:#000000;fill-opacity:1;fill-rule:evenodd;stroke:none"
         id="path30"
         inkscape:connector-curvature="0" /><path
         d="M 865.512,974.41 797.34,949.379 865.512,924.34 c -10.903,14.762 -10.821,35 0,50.07 z"
         style="fill:none;stroke:#000000;stroke-width:3.89763999;stroke-linecap:butt;stroke-linejoin:round;stroke-miterlimit:4;stroke-dasharray:none;stroke-opacity:1"
         id="path32"
         inkscape:connector-curvature="0" /><path
         d="m 2783.4,1009.38 c -963.99,0 -963.99,0 -963.99,0"
         style="fill:none;stroke:#000000;stroke-width:6.00000015;stroke-linecap:butt;stroke-linejoin:miter;stroke-miterlimit:4;stroke-dasharray:none;stroke-opacity:1"
         id="path34"
         inkscape:connector-curvature="0" /><path
         d="m 2737.81,1034.53 68.13,-25.04 -68.13,-25.041 c 10.86,14.77 10.82,35.001 0,50.081 z"
         style="fill:#000000;fill-opacity:1;fill-rule:evenodd;stroke:none"
         id="path36"
         inkscape:connector-curvature="0" /><path
         d="m 2737.81,1034.53 68.13,-25.04 -68.13,-25.041 c 10.86,14.77 10.82,35.001 0,50.081 z"
         style="fill:none;stroke:#000000;stroke-width:3.89763999;stroke-linecap:butt;stroke-linejoin:round;stroke-miterlimit:4;stroke-dasharray:none;stroke-opacity:1"
         id="path38"
         inkscape:connector-curvature="0" /><path
         d="m 1643.48,480.469 c 177.69,0 177.69,0 177.69,0"
         style="fill:none;stroke:#000000;stroke-width:5.99927998;stroke-linecap:butt;stroke-linejoin:miter;stroke-miterlimit:4;stroke-dasharray:none;stroke-opacity:1"
         id="path40"
         inkscape:connector-curvature="0" /><path
         d="m 1711.6,505.512 -68.12,-25.043 68.12,-25.078 c -10.86,14.808 -10.82,35.039 0,50.121 z"
         style="fill:#000000;fill-opacity:1;fill-rule:evenodd;stroke:none"
         id="path42"
         inkscape:connector-curvature="0" /><path
         d="m 1711.6,505.512 -68.12,-25.043 68.12,-25.078 c -10.86,14.808 -10.82,35.039 0,50.121 z"
         style="fill:none;stroke:#000000;stroke-width:3.89763999;stroke-linecap:butt;stroke-linejoin:round;stroke-miterlimit:4;stroke-dasharray:none;stroke-opacity:1"
         id="path44"
         inkscape:connector-curvature="0" /><path
         d="m 2573.16,435.469 c -752.77,0 -752.77,0 -752.77,0"
         style="fill:none;stroke:#000000;stroke-width:6.00000015;stroke-linecap:butt;stroke-linejoin:miter;stroke-miterlimit:4;stroke-dasharray:none;stroke-opacity:1"
         id="path46"
         inkscape:connector-curvature="0" /><path
         d="m 2512.03,460.859 68.75,-25.269 -68.75,-25.32 c 10.98,14.96 10.94,35.351 0,50.589 z"
         style="fill:#000000;fill-opacity:1;fill-rule:evenodd;stroke:none"
         id="path48"
         inkscape:connector-curvature="0" /><path
         d="m 2512.03,460.859 68.75,-25.269 -68.75,-25.32 c 10.98,14.96 10.94,35.351 0,50.589 z"
         style="fill:none;stroke:#000000;stroke-width:3.93211007;stroke-linecap:butt;stroke-linejoin:round;stroke-miterlimit:4;stroke-dasharray:none;stroke-opacity:1"
         id="path50"
         inkscape:connector-curvature="0" /><path
         d="M 799.219,1384.38 C 796.52,899.609 796.52,899.609 796.52,899.609"
         style="fill:none;stroke:#000000;stroke-width:7.08660984;stroke-linecap:butt;stroke-linejoin:miter;stroke-miterlimit:4;stroke-dasharray:none;stroke-opacity:1"
         id="path52"
         inkscape:connector-curvature="0" /><path
         d="m 2802.81,1048.05 c 1.25,-359.14 1.25,-359.14 1.25,-359.14"
         style="fill:none;stroke:#000000;stroke-width:7.59243011;stroke-linecap:butt;stroke-linejoin:miter;stroke-miterlimit:4;stroke-dasharray:none;stroke-opacity:1"
         id="path54"
         inkscape:connector-curvature="0" /><path
         d="m 1642.93,31.7188 c 0,483.4802 0,483.4802 0,483.4802"
         style="fill:none;stroke:#000000;stroke-width:7.08660984;stroke-linecap:butt;stroke-linejoin:miter;stroke-miterlimit:4;stroke-dasharray:none;stroke-opacity:1"
         id="path56"
         inkscape:connector-curvature="0" /><path
         d="m 2581.8,331.762 -1.37,146.168"
         style="fill:none;stroke:#000000;stroke-width:6.71788979;stroke-linecap:butt;stroke-linejoin:miter;stroke-miterlimit:4;stroke-dasharray:none;stroke-opacity:1"
         id="path58"
         inkscape:connector-curvature="0" /><g
         id="g60"
         transform="scale(10)"><text
           transform="matrix(1,0,0,-1,144.893,85.627)"
           style="font-variant:normal;font-weight:normal;font-size:10.57470036px;font-family:'DejaVu Sans';-inkscape-font-specification:DejaVuSans;writing-mode:lr-tb;fill:#000000;fill-opacity:1;fill-rule:nonzero;stroke:none"
           id="text64"><tspan
             x="0"
             y="0"
             id="tspan62">Δ</tspan></text>
<text
           transform="matrix(1,0,0,-1,152.12698,85.627)"
           style="font-variant:normal;font-weight:normal;font-size:10.57470036px;font-family:'DejaVu Sans';-inkscape-font-specification:DejaVuSans;writing-mode:lr-tb;fill:#000000;fill-opacity:1;fill-rule:nonzero;stroke:none"
           id="text68"><tspan
             x="0"
             y="0"
             id="tspan66">x</tspan></text>
<text
           transform="matrix(1,0,0,-1,158.3801,83.51177)"
           style="font-variant:normal;font-weight:normal;font-size:6.87354994px;font-family:'DejaVu Sans';-inkscape-font-specification:DejaVuSans;writing-mode:lr-tb;fill:#000000;fill-opacity:1;fill-rule:nonzero;stroke:none"
           id="text72"><tspan
             x="0"
             y="0"
             id="tspan70">0</tspan></text>
<text
           transform="matrix(1,0,0,-1,220.775,85.46919)"
           style="font-variant:normal;font-weight:normal;font-size:10.57470036px;font-family:'DejaVu Sans';-inkscape-font-specification:DejaVuSans;writing-mode:lr-tb;fill:#000000;fill-opacity:1;fill-rule:nonzero;stroke:none"
           id="text76"><tspan
             x="0"
             y="0"
             id="tspan74">Δ</tspan></text>
<text
           transform="matrix(1,0,0,-1,228.00898,85.46919)"
           style="font-variant:normal;font-weight:normal;font-size:10.57470036px;font-family:'DejaVu Sans';-inkscape-font-specification:DejaVuSans;writing-mode:lr-tb;fill:#000000;fill-opacity:1;fill-rule:nonzero;stroke:none"
           id="text80"><tspan
             x="0"
             y="0"
             id="tspan78">x</tspan></text>
<text
           transform="matrix(1,0,0,-1,234.2621,83.35396)"
           style="font-variant:normal;font-weight:normal;font-size:6.87354994px;font-family:'DejaVu Sans';-inkscape-font-specification:DejaVuSans;writing-mode:lr-tb;fill:#000000;fill-opacity:1;fill-rule:nonzero;stroke:none"
           id="text84"><tspan
             x="0"
             y="0"
             id="tspan82">3</tspan></text>
<text
           transform="matrix(1,0,0,-1,162.7391,55.15236)"
           style="font-variant:normal;font-weight:normal;font-size:10.57470036px;font-family:'DejaVu Sans';-inkscape-font-specification:DejaVuSans;writing-mode:lr-tb;fill:#000000;fill-opacity:1;fill-rule:nonzero;stroke:none"
           id="text88"><tspan
             x="0"
             y="0"
             id="tspan86">Δ</tspan></text>
<text
           transform="matrix(1,0,0,-1,169.97308,55.15236)"
           style="font-variant:normal;font-weight:normal;font-size:10.57470036px;font-family:'DejaVu Sans';-inkscape-font-specification:DejaVuSans;writing-mode:lr-tb;fill:#000000;fill-opacity:1;fill-rule:nonzero;stroke:none"
           id="text92"><tspan
             x="0"
             y="0"
             id="tspan90">x</tspan></text>
<text
           transform="matrix(1,0,0,-1,176.22581,53.03752)"
           style="font-variant:normal;font-weight:normal;font-size:6.87354994px;font-family:'DejaVu Sans';-inkscape-font-specification:DejaVuSans;writing-mode:lr-tb;fill:#000000;fill-opacity:1;fill-rule:nonzero;stroke:none"
           id="text96"><tspan
             x="0"
             y="0"
             id="tspan94">1</tspan></text>
<text
           transform="matrix(1,0,0,-1,209.88211,54.61682)"
           style="font-variant:normal;font-weight:normal;font-size:10.57470036px;font-family:'DejaVu Sans';-inkscape-font-specification:DejaVuSans;writing-mode:lr-tb;fill:#000000;fill-opacity:1;fill-rule:nonzero;stroke:none"
           id="text100"><tspan
             x="0"
             y="0"
             id="tspan98">Δ</tspan></text>
<text
           transform="matrix(1,0,0,-1,217.11609,54.61682)"
           style="font-variant:normal;font-weight:normal;font-size:10.57470036px;font-family:'DejaVu Sans';-inkscape-font-specification:DejaVuSans;writing-mode:lr-tb;fill:#000000;fill-opacity:1;fill-rule:nonzero;stroke:none"
           id="text104"><tspan
             x="0"
             y="0"
             id="tspan102">x</tspan></text>
<text
           transform="matrix(1,0,0,-1,223.36882,52.50198)"
           style="font-variant:normal;font-weight:normal;font-size:6.87354994px;font-family:'DejaVu Sans';-inkscape-font-specification:DejaVuSans;writing-mode:lr-tb;fill:#000000;fill-opacity:1;fill-rule:nonzero;stroke:none"
           id="text108"><tspan
             x="0"
             y="0"
             id="tspan106">2</tspan></text>
</g><path
         d="m 2596.17,344.02 c 0,-8.04 -6.52,-14.571 -14.57,-14.571 -8.01,0 -14.53,6.531 -14.53,14.571 0,8.011 6.52,14.531 14.53,14.531 8.05,0 14.57,-6.52 14.57,-14.531 z"
         style="fill:none;stroke:#00af00;stroke-width:27.6196003;stroke-linecap:butt;stroke-linejoin:miter;stroke-miterlimit:4;stroke-dasharray:none;stroke-opacity:1"
         id="path110"
         inkscape:connector-curvature="0" /><path
         d="m 1660.47,32.4609 c 0,-8.0507 -6.52,-14.5703 -14.53,-14.5703 -8.05,0 -14.57,6.5196 -14.57,14.5703 0,8.0079 6.52,14.5274 14.57,14.5274 8.01,0 14.53,-6.5195 14.53,-14.5274 z"
         style="fill:none;stroke:#00af00;stroke-width:27.6196003;stroke-linecap:butt;stroke-linejoin:miter;stroke-miterlimit:4;stroke-dasharray:none;stroke-opacity:1"
         id="path112"
         inkscape:connector-curvature="0" /><path
         d="m 812.031,1382.7 c 0,-8.05 -6.519,-14.54 -14.531,-14.54 -8.051,0 -14.57,6.49 -14.57,14.54 0,8 6.519,14.53 14.57,14.53 8.012,0 14.531,-6.53 14.531,-14.53"
         style="fill:none;stroke:#00af00;stroke-width:27.6196003;stroke-linecap:butt;stroke-linejoin:miter;stroke-miterlimit:4;stroke-dasharray:none;stroke-opacity:1"
         id="path114"
         inkscape:connector-curvature="0" /><path
         d="m 2822.81,684.059 c 0,-8.039 -6.52,-14.528 -14.57,-14.528 -8.01,0 -14.53,6.489 -14.53,14.528 0,8.011 6.52,14.531 14.53,14.531 8.05,0 14.57,-6.52 14.57,-14.531 z"
         style="fill:none;stroke:#00af00;stroke-width:27.6196003;stroke-linecap:butt;stroke-linejoin:miter;stroke-miterlimit:4;stroke-dasharray:none;stroke-opacity:1"
         id="path116"
         inkscape:connector-curvature="0" /></g></g></svg>