<?xml version="1.0" standalone="no"?>
<!DOCTYPE svg PUBLIC "-//W3C//DTD SVG 20010904//EN"
 "http://www.w3.org/TR/2001/REC-SVG-20010904/DTD/svg10.dtd">
<svg version="1.0" xmlns="http://www.w3.org/2000/svg"
 width="1280.000000pt" height="1109.000000pt" viewBox="0 0 1280.000000 1109.000000"
 preserveAspectRatio="xMidYMid meet">
<g transform="translate(0.000000,1109.000000) scale(0.100000,-0.100000)"
fill="#000000" stroke="none">
<path d="M11540 11069 c-25 -10 -198 -79 -385 -153 -187 -74 -734 -298 -1215
-499 -1121 -468 -1051 -438 -1056 -451 -2 -6 -19 -98 -38 -204 -18 -106 -36
-195 -38 -198 -5 -5 -489 -205 -2278 -944 -1941 -801 -3859 -1594 -3901 -1612
l-46 -19 -27 -196 c-15 -107 -29 -200 -32 -207 -5 -14 -1514 -635 -1529 -630
-6 3 -55 115 -110 249 -54 134 -101 249 -105 255 -4 7 -96 -28 -250 -95 -135
-58 -248 -109 -252 -113 -4 -4 38 -117 94 -251 72 -173 99 -247 92 -258 -5 -8
-111 -58 -236 -111 l-228 -96 0 -73 c0 -45 4 -73 11 -73 6 0 380 -154 832
-342 452 -188 829 -341 837 -340 8 0 301 118 650 262 349 144 656 271 682 281
l47 18 118 -86 c65 -47 139 -101 164 -120 l46 -33 1134 468 c624 258 1142 471
1151 475 19 7 34 -4 171 -126 49 -43 94 -76 100 -74 7 3 124 53 261 113 218
95 250 106 260 92 6 -9 31 -74 56 -145 l44 -130 -21 -49 c-11 -27 -589 -1277
-1283 -2779 -695 -1502 -1264 -2741 -1264 -2754 -1 -20 11 -29 88 -62 49 -22
95 -39 101 -39 6 0 596 1033 1311 2295 714 1262 1304 2295 1311 2295 13 0 19
-40 28 -170 7 -107 98 -1467 125 -1857 43 -625 61 -892 85 -1258 14 -209 28
-399 31 -422 l5 -43 100 0 c71 0 101 4 104 12 2 7 34 503 69 1103 36 600 70
1164 76 1255 6 91 15 235 20 320 5 85 22 355 36 600 14 245 30 449 35 454 6 6
12 6 18 0 6 -5 597 -1035 1315 -2289 718 -1254 1311 -2284 1319 -2289 9 -6 46
6 110 34 53 24 97 45 97 48 0 10 -2480 5333 -2531 5432 -89 175 -196 279 -376
367 -50 24 -96 50 -101 56 -19 25 -134 327 -130 344 2 13 68 45 248 118 135
55 251 104 258 108 7 5 12 33 12 75 0 37 3 105 7 151 l6 84 51 23 c116 53
1790 744 1801 744 7 0 82 -54 166 -120 85 -66 161 -120 170 -120 9 0 518 208
1130 463 613 255 1206 501 1317 548 130 54 218 96 243 117 65 55 106 159 139
347 19 110 2 306 -50 565 -133 667 -548 1381 -931 1603 -50 29 -183 78 -208
76 -9 -1 -36 -9 -61 -20z m260 -344 c28 -14 84 -58 126 -97 252 -239 523 -786
626 -1260 30 -139 32 -385 5 -468 -48 -142 -134 -181 -264 -120 -76 36 -235
203 -329 345 -341 517 -545 1276 -413 1542 46 93 138 114 249 58z"/>
</g>
</svg>
