<?xml version="1.0" encoding="UTF-8" standalone="no"?>
<svg
   xmlns:dc="http://purl.org/dc/elements/1.1/"
   xmlns:cc="http://creativecommons.org/ns#"
   xmlns:rdf="http://www.w3.org/1999/02/22-rdf-syntax-ns#"
   xmlns:svg="http://www.w3.org/2000/svg"
   xmlns="http://www.w3.org/2000/svg"
   viewBox="0 0 592.38666 247.58667"
   height="247.58667"
   width="592.38666"
   xml:space="preserve"
   id="svg2"
   version="1.1"><metadata
     id="metadata8"><rdf:RDF><cc:Work
         rdf:about=""><dc:format>image/svg+xml</dc:format><dc:type
           rdf:resource="http://purl.org/dc/dcmitype/StillImage" /></cc:Work></rdf:RDF></metadata><defs
     id="defs6" /><g
     transform="matrix(1.3333333,0,0,-1.3333333,0,247.58667)"
     id="g10"><g
       transform="scale(0.1)"
       id="g12"><path
         id="path14"
         style="fill:#f04121;fill-opacity:1;fill-rule:nonzero;stroke:none"
         d="m 3075.86,1680.87 c 0,26.29 -21.32,47.61 -47.61,47.61 -26.3,0 -47.62,-21.32 -47.62,-47.61 0,-26.3 21.32,-47.61 47.62,-47.61 26.29,0 47.61,21.31 47.61,47.61" /><path
         id="path16"
         style="fill:none;stroke:#eaf0fa;stroke-width:1;stroke-linecap:butt;stroke-linejoin:miter;stroke-miterlimit:10;stroke-dasharray:none;stroke-opacity:1"
         d="m 3075.86,1680.87 c 0,26.29 -21.32,47.61 -47.61,47.61 -26.3,0 -47.62,-21.32 -47.62,-47.61 0,-26.3 21.32,-47.61 47.62,-47.61 26.29,0 47.61,21.31 47.61,47.61 z" /><path
         id="path18"
         style="fill:#f04121;fill-opacity:1;fill-rule:nonzero;stroke:none"
         d="m 3164.19,1598.09 c 0,30.9 -25.04,55.97 -55.98,55.97 -30.93,0 -56.02,-25.07 -56.02,-55.97 0,-30.95 25.09,-56.04 56.02,-56.04 30.94,0 55.98,25.09 55.98,56.04" /><path
         id="path20"
         style="fill:none;stroke:#eaf0fa;stroke-width:1;stroke-linecap:butt;stroke-linejoin:miter;stroke-miterlimit:10;stroke-dasharray:none;stroke-opacity:1"
         d="m 3164.19,1598.09 c 0,30.9 -25.04,55.97 -55.98,55.97 -30.93,0 -56.02,-25.07 -56.02,-55.97 0,-30.95 25.09,-56.04 56.02,-56.04 30.94,0 55.98,25.09 55.98,56.04 z" /><path
         id="path22"
         style="fill:#f04121;fill-opacity:1;fill-rule:nonzero;stroke:none"
         d="m 3239.95,1486.11 c 0,36.38 -29.46,65.87 -65.87,65.87 -36.4,0 -65.87,-29.49 -65.87,-65.87 0,-36.4 29.47,-65.9 65.87,-65.9 36.41,0 65.87,29.5 65.87,65.9" /><path
         id="path24"
         style="fill:none;stroke:#eaf0fa;stroke-width:1;stroke-linecap:butt;stroke-linejoin:miter;stroke-miterlimit:10;stroke-dasharray:none;stroke-opacity:1"
         d="m 3239.95,1486.11 c 0,36.38 -29.46,65.87 -65.87,65.87 -36.4,0 -65.87,-29.49 -65.87,-65.87 0,-36.4 29.47,-65.9 65.87,-65.9 36.41,0 65.87,29.5 65.87,65.9 z" /><path
         id="path26"
         style="fill:#f04121;fill-opacity:1;fill-rule:nonzero;stroke:none"
         d="m 3297.72,1352.03 c 0,42.8 -34.7,77.51 -77.51,77.51 -42.79,0 -77.5,-34.71 -77.5,-77.51 0,-42.8 34.71,-77.51 77.5,-77.51 42.81,0 77.51,34.71 77.51,77.51" /><path
         id="path28"
         style="fill:none;stroke:#eaf0fa;stroke-width:2.5;stroke-linecap:butt;stroke-linejoin:miter;stroke-miterlimit:10;stroke-dasharray:none;stroke-opacity:1"
         d="m 3297.72,1352.03 c 0,42.8 -34.7,77.51 -77.51,77.51 -42.79,0 -77.5,-34.71 -77.5,-77.51 0,-42.8 34.71,-77.51 77.5,-77.51 42.81,0 77.51,34.71 77.51,77.51 z" /><path
         id="path30"
         style="fill:#f04121;fill-opacity:1;fill-rule:nonzero;stroke:none"
         d="m 3311.45,1209.31 c 0,50.37 -40.83,91.17 -91.24,91.17 -50.34,0 -91.17,-40.8 -91.17,-91.17 0,-50.35 40.83,-91.2 91.17,-91.2 50.41,0 91.24,40.85 91.24,91.2" /><path
         id="path32"
         style="fill:none;stroke:#eaf0fa;stroke-width:2.5;stroke-linecap:butt;stroke-linejoin:miter;stroke-miterlimit:10;stroke-dasharray:none;stroke-opacity:1"
         d="m 3311.45,1209.31 c 0,50.37 -40.83,91.17 -91.24,91.17 -50.34,0 -91.17,-40.8 -91.17,-91.17 0,-50.35 40.83,-91.2 91.17,-91.2 50.41,0 91.24,40.85 91.24,91.2 z" /><path
         id="path34"
         style="fill:#f04121;fill-opacity:1;fill-rule:nonzero;stroke:none"
         d="m 3281.33,1050.68 c 0,59.26 -48.05,107.27 -107.31,107.27 -59.24,0 -107.23,-48.01 -107.23,-107.27 0,-59.25 47.99,-107.289 107.23,-107.289 59.26,0 107.31,48.039 107.31,107.289" /><path
         id="path36"
         style="fill:none;stroke:#eaf0fa;stroke-width:5;stroke-linecap:butt;stroke-linejoin:miter;stroke-miterlimit:10;stroke-dasharray:none;stroke-opacity:1"
         d="m 3281.33,1050.68 c 0,59.26 -48.05,107.27 -107.31,107.27 -59.24,0 -107.23,-48.01 -107.23,-107.27 0,-59.25 47.99,-107.289 107.23,-107.289 59.26,0 107.31,48.039 107.31,107.289 z" /><path
         id="path38"
         style="fill:#f04121;fill-opacity:1;fill-rule:nonzero;stroke:none"
         d="m 3202.07,880.703 c 0,69.68 -56.57,126.197 -126.27,126.197 -69.69,0 -126.15,-56.517 -126.15,-126.197 0,-69.691 56.46,-126.215 126.15,-126.215 69.7,0 126.27,56.524 126.27,126.215" /><path
         id="path40"
         style="fill:none;stroke:#eaf0fa;stroke-width:5;stroke-linecap:butt;stroke-linejoin:miter;stroke-miterlimit:10;stroke-dasharray:none;stroke-opacity:1"
         d="m 3202.07,880.703 c 0,69.68 -56.57,126.197 -126.27,126.197 -69.69,0 -126.15,-56.517 -126.15,-126.197 0,-69.691 56.46,-126.215 126.15,-126.215 69.7,0 126.27,56.524 126.27,126.215 z" /><path
         id="path42"
         style="fill:#f04121;fill-opacity:1;fill-rule:nonzero;stroke:none"
         d="m 3047.87,732.25 c 0,81.988 -66.52,148.453 -148.51,148.453 -82,0 -148.46,-66.465 -148.46,-148.453 0,-82 66.46,-148.512 148.46,-148.512 81.99,0 148.51,66.512 148.51,148.512" /><path
         id="path44"
         style="fill:none;stroke:#eaf0fa;stroke-width:7.5;stroke-linecap:butt;stroke-linejoin:miter;stroke-miterlimit:10;stroke-dasharray:none;stroke-opacity:1"
         d="m 3047.87,732.25 c 0,81.988 -66.52,148.453 -148.51,148.453 -82,0 -148.46,-66.465 -148.46,-148.453 0,-82 66.46,-148.512 148.46,-148.512 81.99,0 148.51,66.512 148.51,148.512 z" /><path
         id="path46"
         style="fill:#f04121;fill-opacity:1;fill-rule:nonzero;stroke:none"
         d="m 2804.36,654.191 c 0,96.469 -78.23,174.7 -174.7,174.7 -96.48,0 -174.7,-78.231 -174.7,-174.7 0,-96.472 78.22,-174.691 174.7,-174.691 96.47,0 174.7,78.219 174.7,174.691" /><path
         id="path48"
         style="fill:none;stroke:#eaf0fa;stroke-width:7.5;stroke-linecap:butt;stroke-linejoin:miter;stroke-miterlimit:10;stroke-dasharray:none;stroke-opacity:1"
         d="m 2804.36,654.191 c 0,96.469 -78.23,174.7 -174.7,174.7 -96.48,0 -174.7,-78.231 -174.7,-174.7 0,-96.472 78.22,-174.691 174.7,-174.691 96.47,0 174.7,78.219 174.7,174.691 z" /><path
         id="path50"
         style="fill:#f04121;fill-opacity:1;fill-rule:nonzero;stroke:none"
         d="m 2985.39,1741.54 c 0,22.33 -18.09,40.48 -40.45,40.48 -22.35,0 -40.45,-18.15 -40.45,-40.48 0,-22.33 18.1,-40.47 40.45,-40.47 22.36,0 40.45,18.14 40.45,40.47" /><path
         id="path52"
         style="fill:none;stroke:#eaf0fa;stroke-width:1;stroke-linecap:butt;stroke-linejoin:miter;stroke-miterlimit:10;stroke-dasharray:none;stroke-opacity:1"
         d="m 2985.39,1741.54 c 0,22.33 -18.09,40.48 -40.45,40.48 -22.35,0 -40.45,-18.15 -40.45,-40.48 0,-22.33 18.1,-40.47 40.45,-40.47 22.36,0 40.45,18.14 40.45,40.47 z" /><path
         id="path54"
         style="fill:#f04121;fill-opacity:1;fill-rule:nonzero;stroke:none"
         d="m 2899.36,1786.66 c 0,18.97 -15.37,34.39 -34.38,34.39 -18.97,0 -34.38,-15.42 -34.38,-34.39 0,-18.96 15.41,-34.4 34.38,-34.4 19.01,0 34.38,15.44 34.38,34.4" /><path
         id="path56"
         style="fill:none;stroke:#eaf0fa;stroke-width:1;stroke-linecap:butt;stroke-linejoin:miter;stroke-miterlimit:10;stroke-dasharray:none;stroke-opacity:1"
         d="m 2899.36,1786.66 c 0,18.97 -15.37,34.39 -34.38,34.39 -18.97,0 -34.38,-15.42 -34.38,-34.39 0,-18.96 15.41,-34.4 34.38,-34.4 19.01,0 34.38,15.44 34.38,34.4 z" /><path
         id="path58"
         style="fill:#f04121;fill-opacity:1;fill-rule:nonzero;stroke:none"
         d="m 2814.08,1815.91 c 0,16.12 -13.05,29.24 -29.24,29.24 -16.12,0 -29.19,-13.12 -29.19,-29.24 0,-16.1 13.07,-29.25 29.19,-29.25 16.19,0 29.24,13.15 29.24,29.25" /><path
         id="path60"
         style="fill:none;stroke:#eaf0fa;stroke-width:1;stroke-linecap:butt;stroke-linejoin:miter;stroke-miterlimit:10;stroke-dasharray:none;stroke-opacity:1"
         d="m 2814.08,1815.91 c 0,16.12 -13.05,29.24 -29.24,29.24 -16.12,0 -29.19,-13.12 -29.19,-29.24 0,-16.1 13.07,-29.25 29.19,-29.25 16.19,0 29.24,13.15 29.24,29.25 z" /><path
         id="path62"
         style="fill:#f04121;fill-opacity:1;fill-rule:nonzero;stroke:none"
         d="m 2733.3,1829.14 c 0,13.69 -11.15,24.84 -24.87,24.84 -13.72,0 -24.88,-11.15 -24.88,-24.84 0,-13.7 11.16,-24.85 24.88,-24.85 13.72,0 24.87,11.15 24.87,24.85" /><path
         id="path64"
         style="fill:none;stroke:#eaf0fa;stroke-width:1;stroke-linecap:butt;stroke-linejoin:miter;stroke-miterlimit:10;stroke-dasharray:none;stroke-opacity:1"
         d="m 2733.3,1829.14 c 0,13.69 -11.15,24.84 -24.87,24.84 -13.72,0 -24.88,-11.15 -24.88,-24.84 0,-13.7 11.16,-24.85 24.88,-24.85 13.72,0 24.87,11.15 24.87,24.85 z" /><path
         id="path66"
         style="fill:#f04121;fill-opacity:1;fill-rule:nonzero;stroke:none"
         d="m 2657.81,1835.25 c 0,11.65 -9.45,21.13 -21.1,21.13 -11.64,0 -21.15,-9.48 -21.15,-21.13 0,-11.61 9.51,-21.12 21.15,-21.12 11.65,0 21.1,9.51 21.1,21.12" /><path
         id="path68"
         style="fill:none;stroke:#eaf0fa;stroke-width:1;stroke-linecap:butt;stroke-linejoin:miter;stroke-miterlimit:10;stroke-dasharray:none;stroke-opacity:1"
         d="m 2657.81,1835.25 c 0,11.65 -9.45,21.13 -21.1,21.13 -11.64,0 -21.15,-9.48 -21.15,-21.13 0,-11.61 9.51,-21.12 21.15,-21.12 11.65,0 21.1,9.51 21.1,21.12 z" /><path
         id="path70"
         style="fill:#f04121;fill-opacity:1;fill-rule:nonzero;stroke:none"
         d="m 2583.58,1832.09 c 0,9.89 -8.03,17.95 -17.93,17.95 -9.95,0 -17.97,-8.06 -17.97,-17.95 0,-9.87 8.02,-17.96 17.97,-17.96 9.9,0 17.93,8.09 17.93,17.96" /><path
         id="path72"
         style="fill:none;stroke:#eaf0fa;stroke-width:1;stroke-linecap:butt;stroke-linejoin:miter;stroke-miterlimit:10;stroke-dasharray:none;stroke-opacity:1"
         d="m 2583.58,1832.09 c 0,9.89 -8.03,17.95 -17.93,17.95 -9.95,0 -17.97,-8.06 -17.97,-17.95 0,-9.87 8.02,-17.96 17.97,-17.96 9.9,0 17.93,8.09 17.93,17.96 z" /><path
         id="path74"
         style="fill:#f04121;fill-opacity:1;fill-rule:nonzero;stroke:none"
         d="m 2511.27,1821.05 c 0,9.89 -8.04,17.95 -17.93,17.95 -9.95,0 -17.99,-8.06 -17.99,-17.95 0,-9.87 8.04,-17.96 17.99,-17.96 9.89,0 17.93,8.09 17.93,17.96" /><path
         id="path76"
         style="fill:none;stroke:#eaf0fa;stroke-width:1;stroke-linecap:butt;stroke-linejoin:miter;stroke-miterlimit:10;stroke-dasharray:none;stroke-opacity:1"
         d="m 2511.27,1821.05 c 0,9.89 -8.04,17.95 -17.93,17.95 -9.95,0 -17.99,-8.06 -17.99,-17.95 0,-9.87 8.04,-17.96 17.99,-17.96 9.89,0 17.93,8.09 17.93,17.96 z" /><path
         id="path78"
         style="fill:#f04121;fill-opacity:1;fill-rule:nonzero;stroke:none"
         d="m 2433.15,1796.17 c 0,9.9 -8.03,17.96 -17.93,17.96 -9.94,0 -17.97,-8.06 -17.97,-17.96 0,-9.86 8.03,-17.95 17.97,-17.95 9.9,0 17.93,8.09 17.93,17.95" /><path
         id="path80"
         style="fill:none;stroke:#eaf0fa;stroke-width:1;stroke-linecap:butt;stroke-linejoin:miter;stroke-miterlimit:10;stroke-dasharray:none;stroke-opacity:1"
         d="m 2433.15,1796.17 c 0,9.9 -8.03,17.96 -17.93,17.96 -9.94,0 -17.97,-8.06 -17.97,-17.96 0,-9.86 8.03,-17.95 17.97,-17.95 9.9,0 17.93,8.09 17.93,17.95 z" /><path
         id="path82"
         style="fill:#f04121;fill-opacity:1;fill-rule:nonzero;stroke:none"
         d="m 2344.93,1752.26 c 0,8.42 -6.82,15.24 -15.24,15.24 -8.42,0 -15.26,-6.82 -15.26,-15.24 0,-8.4 6.84,-15.26 15.26,-15.26 8.42,0 15.24,6.86 15.24,15.26" /><path
         id="path84"
         style="fill:none;stroke:#eaf0fa;stroke-width:1;stroke-linecap:butt;stroke-linejoin:miter;stroke-miterlimit:10;stroke-dasharray:none;stroke-opacity:1"
         d="m 2344.93,1752.26 c 0,8.42 -6.82,15.24 -15.24,15.24 -8.42,0 -15.26,-6.82 -15.26,-15.24 0,-8.4 6.84,-15.26 15.26,-15.26 8.42,0 15.24,6.86 15.24,15.26 z" /><path
         id="path86"
         style="fill:#f04121;fill-opacity:1;fill-rule:nonzero;stroke:none"
         d="m 2253.98,1685.82 c 0,8.41 -6.83,15.25 -15.25,15.25 -8.42,0 -15.25,-6.84 -15.25,-15.25 0,-8.4 6.83,-15.26 15.25,-15.26 8.42,0 15.25,6.86 15.25,15.26" /><path
         id="path88"
         style="fill:none;stroke:#eaf0fa;stroke-width:1;stroke-linecap:butt;stroke-linejoin:miter;stroke-miterlimit:10;stroke-dasharray:none;stroke-opacity:1"
         d="m 2253.98,1685.82 c 0,8.41 -6.83,15.25 -15.25,15.25 -8.42,0 -15.25,-6.84 -15.25,-15.25 0,-8.4 6.83,-15.26 15.25,-15.26 8.42,0 15.25,6.86 15.25,15.26 z" /><path
         id="path90"
         style="fill:#f04121;fill-opacity:1;fill-rule:nonzero;stroke:none"
         d="m 2171.28,1598.06 c 0,8.42 -6.84,15.24 -15.25,15.24 -8.42,0 -15.25,-6.82 -15.25,-15.24 0,-8.39 6.83,-15.25 15.25,-15.25 8.41,0 15.25,6.86 15.25,15.25" /><path
         id="path92"
         style="fill:none;stroke:#eaf0fa;stroke-width:1;stroke-linecap:butt;stroke-linejoin:miter;stroke-miterlimit:10;stroke-dasharray:none;stroke-opacity:1"
         d="m 2171.28,1598.06 c 0,8.42 -6.84,15.24 -15.25,15.24 -8.42,0 -15.25,-6.82 -15.25,-15.24 0,-8.39 6.83,-15.25 15.25,-15.25 8.41,0 15.25,6.86 15.25,15.25 z" /><path
         id="path94"
         style="fill:#f04121;fill-opacity:1;fill-rule:nonzero;stroke:none"
         d="m 2098.96,1470.86 c 0,8.42 -6.78,15.25 -15.2,15.25 -8.47,0 -15.3,-6.83 -15.3,-15.25 0,-8.39 6.83,-15.25 15.3,-15.25 8.42,0 15.2,6.86 15.2,15.25" /><path
         id="path96"
         style="fill:none;stroke:#eaf0fa;stroke-width:1;stroke-linecap:butt;stroke-linejoin:miter;stroke-miterlimit:10;stroke-dasharray:none;stroke-opacity:1"
         d="m 2098.96,1470.86 c 0,8.42 -6.78,15.25 -15.2,15.25 -8.47,0 -15.3,-6.83 -15.3,-15.25 0,-8.39 6.83,-15.25 15.3,-15.25 8.42,0 15.2,6.86 15.2,15.25 z" /><path
         id="path98"
         style="fill:#f04121;fill-opacity:1;fill-rule:nonzero;stroke:none"
         d="m 2059.6,1313.22 c 0,8.42 -6.83,15.25 -15.24,15.25 -8.42,0 -15.26,-6.83 -15.26,-15.25 0,-8.39 6.84,-15.25 15.26,-15.25 8.41,0 15.24,6.86 15.24,15.25" /><path
         id="path100"
         style="fill:none;stroke:#eaf0fa;stroke-width:1;stroke-linecap:butt;stroke-linejoin:miter;stroke-miterlimit:10;stroke-dasharray:none;stroke-opacity:1"
         d="m 2059.6,1313.22 c 0,8.42 -6.83,15.25 -15.24,15.25 -8.42,0 -15.26,-6.83 -15.26,-15.25 0,-8.39 6.84,-15.25 15.26,-15.25 8.41,0 15.24,6.86 15.24,15.25 z" /><path
         id="path102"
         style="fill:#232558;fill-opacity:1;fill-rule:nonzero;stroke:none"
         d="m 744.094,524.789 c -65.563,0 -129.336,9.551 -191.297,28.59 -61.984,19.07 -116.82,47.672 -164.473,85.82 -45.312,38.129 -81.062,84.922 -107.269,140.34 -26.231,55.422 -39.942,120.063 -41.117,193.977 h 387.949 c 0,-29.805 5.945,-53.946 17.875,-72.403 11.898,-18.496 26.203,-32.793 42.906,-42.91 16.68,-10.133 34.555,-16.094 53.637,-17.883 19.047,-1.781 36.34,-0.89 51.84,2.692 17.882,4.738 32.46,13.41 43.804,25.914 11.313,12.519 16.985,27.101 16.985,43.808 0,16.668 -6.871,34.25 -20.559,52.735 -13.715,18.469 -39.641,37.231 -77.77,56.321 -50.058,26.2 -119.195,48.85 -207.382,67.93 -41.735,10.73 -80.754,24.42 -117.098,41.12 -36.371,16.68 -68.242,36.93 -95.645,60.79 -38.16,32.17 -66.761,72.09 -85.816,119.78 -19.078,47.65 -27.434,105.48 -25.027,173.41 2.371,59.58 18.465,111.12 48.269,154.64 29.778,43.49 67.321,79.56 112.625,108.16 45.285,28.61 95.93,49.76 151.965,63.47 56.008,13.69 110.84,20.55 164.477,20.55 92.965,0 171.629,-9.55 235.988,-28.6 64.359,-19.08 117.089,-45.89 158.219,-80.45 41.12,-34.58 71.78,-75.98 92.07,-124.25 20.25,-48.27 32.18,-101 35.75,-158.22 H 862.086 c 0,22.63 -5.09,41.71 -15.199,57.22 -10.141,15.47 -22.961,27.7 -38.434,36.64 -15.508,8.94 -32.183,14.59 -50.058,16.99 -17.883,2.37 -34.586,2.96 -50.059,1.78 -25.031,-2.4 -46.484,-9.83 -64.359,-22.34 -17.879,-12.52 -26.821,-30.7 -26.821,-54.53 0,-23.85 13.102,-43.21 39.332,-58.1 26.203,-14.92 73.301,-29.5 141.239,-43.8 61.957,-13.13 122.738,-31.01 182.351,-53.64 59.582,-22.65 112.902,-51.56 160.002,-86.7 47.07,-35.17 84.92,-76.6 113.53,-124.25 28.6,-47.69 42.9,-102.52 42.9,-164.48 0,-71.512 -14.3,-133.488 -42.9,-185.93 -28.61,-52.46 -67.94,-96.261 -117.99,-131.402 -50.06,-35.168 -108.78,-61.09 -176.104,-77.769 -67.348,-16.68 -139.164,-25.02 -215.422,-25.02" /><path
         id="path104"
         style="fill:#232558;fill-opacity:1;fill-rule:nonzero;stroke:none"
         d="m 746.648,936.902 c 22.747,75.708 84.18,143.868 133.047,129.168 48.977,-14.7 121.135,-99.207 97.844,-194.437 -18.805,-76.754 -69.965,-118.461 -167.641,-118.403 -51.109,0.059 -85.929,108.071 -63.25,183.672" /><path
         id="path106"
         style="fill:none;stroke:#d0d1d1;stroke-width:10;stroke-linecap:butt;stroke-linejoin:miter;stroke-miterlimit:10;stroke-dasharray:none;stroke-opacity:1"
         d="m 746.648,936.902 c 22.747,75.708 84.18,143.868 133.047,129.168 48.977,-14.7 121.135,-99.207 97.844,-194.437 -18.805,-76.754 -69.965,-118.461 -167.641,-118.403 -51.109,0.059 -85.929,108.071 -63.25,183.672 z" /><path
         id="path108"
         style="fill:#ffffff;fill-opacity:1;fill-rule:nonzero;stroke:none"
         d="M 797.387,753.23 194.273,986.215 c 0,0 -89.531,152.775 59.364,218.585 l 647.281,-133.78 c 0,0 -235.84,-66.41 -103.531,-317.79" /><path
         id="path110"
         style="fill:none;stroke:#232558;stroke-width:5;stroke-linecap:butt;stroke-linejoin:miter;stroke-miterlimit:10;stroke-dasharray:none;stroke-opacity:1"
         d="M 797.387,753.23 194.273,986.215 c 0,0 -89.531,152.775 59.364,218.585 l 647.281,-133.78 c 0,0 -235.84,-66.41 -103.531,-317.79 z" /><path
         id="path112"
         style="fill:#232558;fill-opacity:1;fill-rule:nonzero;stroke:none"
         d="m 767.641,965.441 123.589,1.422 c 0,0 42.856,-7.761 74.45,13.227 10.277,6.836 11.972,9.457 42.2,17.488 27.93,7.382 48.43,13.722 77.51,19.242 89.91,17 106.04,20.99 -229.745,59.41 0,0 -61.165,-25.03 -88.004,-110.789" /><path
         id="path114"
         style="fill:none;stroke:#cececf;stroke-width:5;stroke-linecap:butt;stroke-linejoin:miter;stroke-miterlimit:10;stroke-dasharray:none;stroke-opacity:1"
         d="m 767.641,965.441 123.589,1.422 c 0,0 42.856,-7.761 74.45,13.227 10.277,6.836 11.972,9.457 42.2,17.488 27.93,7.382 48.43,13.722 77.51,19.242 89.91,17 106.04,20.99 -229.745,59.41 0,0 -61.165,-25.03 -88.004,-110.789 z" /><path
         id="path116"
         style="fill:#ffffff;fill-opacity:1;fill-rule:nonzero;stroke:none"
         d="M 322.484,839.27 51.6406,1038.85 120.84,1077.38 497.891,927.395 322.484,839.27" /><path
         id="path118"
         style="fill:none;stroke:#232558;stroke-width:2.5;stroke-linecap:butt;stroke-linejoin:miter;stroke-miterlimit:10;stroke-dasharray:none;stroke-opacity:1"
         d="M 322.484,839.27 51.6406,1038.85 120.84,1077.38 497.891,927.395 Z" /><path
         id="path120"
         style="fill:none;stroke:#232558;stroke-width:3;stroke-linecap:round;stroke-linejoin:miter;stroke-miterlimit:10;stroke-dasharray:none;stroke-opacity:1"
         d="m 247.598,1031.58 30.504,17.27" /><path
         id="path122"
         style="fill:none;stroke:#232558;stroke-width:5;stroke-linecap:round;stroke-linejoin:bevel;stroke-miterlimit:10;stroke-dasharray:none;stroke-opacity:1"
         d="m 376.816,978.941 47.993,25.669" /><path
         id="path124"
         style="fill:none;stroke:#232558;stroke-width:2;stroke-linecap:butt;stroke-linejoin:miter;stroke-miterlimit:10;stroke-dasharray:none;stroke-opacity:1"
         d="M 72.1406,1051.4 379.551,867.91" /><path
         id="path126"
         style="fill:none;stroke:#232558;stroke-width:2;stroke-linecap:butt;stroke-linejoin:miter;stroke-miterlimit:10;stroke-dasharray:none;stroke-opacity:1"
         d="M 99.5352,1065.52 444.215,900.441" /><path
         id="path128"
         style="fill:none;stroke:#232558;stroke-width:2.5;stroke-linecap:butt;stroke-linejoin:miter;stroke-miterlimit:10;stroke-dasharray:none;stroke-opacity:1"
         d="M 180.891,1133.53 767.641,965.441" /><path
         id="path130"
         style="fill:#ffffff;fill-opacity:1;fill-rule:nonzero;stroke:none"
         d="M 309.641,827.789 45.3555,1032.81 1.625,983.613 l 217.77,-277.004 90.246,121.18" /><path
         id="path132"
         style="fill:none;stroke:#232558;stroke-width:2.5;stroke-linecap:butt;stroke-linejoin:miter;stroke-miterlimit:10;stroke-dasharray:none;stroke-opacity:1"
         d="M 309.641,827.789 45.3555,1032.81 1.625,983.613 219.395,706.609 Z" /><path
         id="path134"
         style="fill:#232558;fill-opacity:1;fill-rule:nonzero;stroke:none"
         d="m 1406.56,555.18 h 430.852 V 1804.83 H 1406.56 Z" /><path
         id="path136"
         style="fill:#232558;fill-opacity:1;fill-rule:nonzero;stroke:none"
         d="m 3889.41,524.789 c -65.56,0 -129.33,9.551 -191.28,28.59 -62,19.07 -116.83,47.672 -164.49,85.82 -45.3,38.129 -81.06,84.922 -107.26,140.34 -26.23,55.422 -39.94,120.063 -41.12,193.977 h 387.94 c 0,-29.805 5.96,-53.946 17.88,-72.403 11.91,-18.496 26.21,-32.793 42.91,-42.91 16.67,-10.133 34.55,-16.094 53.64,-17.883 19.05,-1.781 36.33,-0.89 51.84,2.692 17.87,4.738 32.46,13.41 43.8,25.914 11.31,12.519 16.98,27.101 16.98,43.808 0,16.668 -6.87,34.25 -20.55,52.735 -13.72,18.469 -39.64,37.231 -77.78,56.321 -50.05,26.2 -119.19,48.85 -207.38,67.93 -41.73,10.73 -80.75,24.42 -117.1,41.12 -36.37,16.68 -68.24,36.93 -95.64,60.79 -38.16,32.17 -66.76,72.09 -85.81,119.78 -19.09,47.65 -27.44,105.48 -25.03,173.41 2.37,59.58 18.46,111.12 48.27,154.64 29.77,43.49 67.32,79.56 112.63,108.16 45.28,28.61 95.92,49.76 151.96,63.47 56,13.69 110.84,20.55 164.47,20.55 92.97,0 171.63,-9.55 235.99,-28.6 64.36,-19.08 117.1,-45.89 158.22,-80.45 41.11,-34.58 71.79,-75.98 92.07,-124.25 20.25,-48.27 32.18,-101 35.75,-158.22 H 4007.4 c 0,22.63 -5.08,41.71 -15.19,57.22 -10.14,15.47 -22.96,27.7 -38.44,36.64 -15.5,8.94 -32.18,14.59 -50.06,16.99 -17.87,2.37 -34.58,2.96 -50.06,1.78 -25.02,-2.4 -46.47,-9.83 -64.35,-22.34 -17.88,-12.52 -26.82,-30.7 -26.82,-54.53 0,-23.85 13.11,-43.21 39.33,-58.1 26.21,-14.92 73.3,-29.5 141.24,-43.8 61.95,-13.13 122.74,-31.01 182.35,-53.64 59.58,-22.65 112.91,-51.56 160,-86.7 47.07,-35.17 84.92,-76.6 113.53,-124.25 28.6,-47.69 42.91,-102.52 42.91,-164.48 0,-71.512 -14.31,-133.488 -42.91,-185.93 -28.61,-52.46 -67.93,-96.261 -117.99,-131.402 -50.06,-35.168 -108.78,-61.09 -176.1,-77.769 -67.35,-16.68 -139.17,-25.02 -215.43,-25.02" /><path
         id="path138"
         style="fill:#f04121;fill-opacity:1;fill-rule:nonzero;stroke:none"
         d="m 2068.46,1110.32 c 0,8.41 -6.78,15.25 -15.2,15.25 -8.47,0 -15.3,-6.84 -15.3,-15.25 0,-8.39 6.83,-15.25 15.3,-15.25 8.42,0 15.2,6.86 15.2,15.25" /><path
         id="path140"
         style="fill:none;stroke:#eaf0fa;stroke-width:1;stroke-linecap:butt;stroke-linejoin:miter;stroke-miterlimit:10;stroke-dasharray:none;stroke-opacity:1"
         d="m 2068.46,1110.32 c 0,8.41 -6.78,15.25 -15.2,15.25 -8.47,0 -15.3,-6.84 -15.3,-15.25 0,-8.39 6.83,-15.25 15.3,-15.25 8.42,0 15.2,6.86 15.2,15.25 z" /><path
         id="path142"
         style="fill:none;stroke:#232558;stroke-width:2.5;stroke-linecap:butt;stroke-linejoin:miter;stroke-miterlimit:10;stroke-dasharray:none;stroke-opacity:1"
         d="m 149.375,966.836 -9.73,-7.156" /><path
         id="path144"
         style="fill:none;stroke:#232558;stroke-width:5;stroke-linecap:butt;stroke-linejoin:miter;stroke-miterlimit:10;stroke-dasharray:none;stroke-opacity:1"
         d="m 250.992,891.902 -11.754,-9.507" /><path
         id="path146"
         style="fill:none;stroke:#232558;stroke-width:2;stroke-linecap:butt;stroke-linejoin:miter;stroke-miterlimit:10;stroke-dasharray:none;stroke-opacity:1"
         d="M 31.4102,1017.12 278.102,785.98" /><path
         id="path148"
         style="fill:none;stroke:#232558;stroke-width:2;stroke-linecap:butt;stroke-linejoin:miter;stroke-miterlimit:10;stroke-dasharray:none;stroke-opacity:1"
         d="M 15.0195,998.672 245.09,741.148" /><path
         id="path150"
         style="fill:#232558;fill-opacity:1;fill-rule:nonzero;stroke:none"
         d="M 292.875,250 V 39.2813 h 72.203 V 4.46094 H 255.82 V 250 h 37.055" /><path
         id="path152"
         style="fill:#232558;fill-opacity:1;fill-rule:nonzero;stroke:none"
         d="M 758.215,98.9297 721.793,182.43 683.621,98.9297 Z M 773.32,64.0898 H 668.191 L 640.84,4.46094 H 600.922 L 722.426,265.43 839.641,4.46094 H 799.086 L 773.32,64.0898" /><path
         id="path154"
         style="fill:#232558;fill-opacity:1;fill-rule:nonzero;stroke:none"
         d="m 1136.24,39.2813 h 22.9 c 16.75,0 29.05,3.2773 36.9,9.8671 8.26,7.1016 12.4,16.1133 12.4,27.0313 0,10.6016 -3.98,19.5117 -11.93,26.7183 -7.74,7.102 -21.58,10.661 -41.51,10.661 h -18.76 z m 0,105.3007 h 11.61 c 13.78,0 23.87,3.039 30.29,9.137 6.42,6.09 9.62,15.07 9.62,26.953 0,11.558 -3.28,20.328 -9.85,26.328 -6.58,5.969 -16.12,8.98 -28.63,8.98 h -13.04 z M 1099.18,4.46094 V 250 h 36.89 c 16.44,0 29.53,-1.262 39.29,-3.801 9.86,-2.539 18.18,-6.84 24.97,-12.89 6.89,-6.25 12.35,-14.047 16.38,-23.379 4.13,-9.442 6.2,-18.969 6.2,-28.621 0,-17.61 -6.73,-32.5 -20.2,-44.7 13.05,-4.461 23.33,-12.25 30.86,-23.379 7.63,-11.019 11.45,-23.8511 11.45,-38.48 0,-19.1992 -6.79,-35.4102 -20.36,-48.6719 -8.17,-8.1562 -17.34,-13.8281 -27.51,-17.00779 -11.13,-3.08984 -25.08,-4.60937 -41.83,-4.60937 h -56.14" /><path
         id="path156"
         style="fill:#232558;fill-opacity:1;fill-rule:nonzero;stroke:none"
         d="m 1545.75,127.879 c 0,-27.149 9.12,-49.4806 27.36,-66.9806 18.13,-17.4765 39.07,-26.2265 62.82,-26.2265 25.76,0 47.5,8.9062 65.2,26.7187 17.71,18.0313 26.57,39.9614 26.57,65.8394 0,26.192 -8.75,48.149 -26.25,65.84 -17.39,17.809 -38.91,26.719 -64.57,26.719 -25.55,0 -47.13,-8.91 -64.73,-26.719 -17.6,-17.601 -26.4,-39.332 -26.4,-65.191 z m -37.37,0.461 c 0,34.582 12.66,64.262 38.01,89.07 25.23,24.801 55.55,37.199 90.97,37.199 34.99,0 64.99,-12.5 90.02,-37.519 25.12,-25.008 37.69,-55.07 37.69,-90.168 0,-35.3126 -12.62,-65.2736 -37.85,-89.8634 C 1701.88,12.3516 1671.29,0 1635.45,0 c -31.7,0 -60.17,10.9805 -85.41,32.9219 -27.77,24.2695 -41.66,56.0898 -41.66,95.4181" /><path
         id="path158"
         style="fill:#232558;fill-opacity:1;fill-rule:nonzero;stroke:none"
         d="m 2077.57,137.25 h 11.77 c 35.09,0 52.64,13.422 52.64,40.238 0,25.133 -17.07,37.692 -51.21,37.692 h -13.2 z m 46.12,-28.141 76.02,-104.64806 h -45.33 L 2084.25,104.969 h -6.68 V 4.46094 h -37.06 V 250 h 43.42 c 32.44,0 55.87,-6.09 70.29,-18.281 15.91,-13.571 23.87,-31.481 23.87,-53.75 0,-17.399 -4.99,-32.34 -14.96,-44.86 -9.97,-12.5 -23.12,-20.507 -39.44,-24" /><path
         id="path160"
         style="fill:#232558;fill-opacity:1;fill-rule:nonzero;stroke:none"
         d="M 2594.59,98.9297 2558.16,182.43 2520,98.9297 Z M 2609.7,64.0898 H 2504.57 L 2477.22,4.46094 h -39.93 L 2558.81,265.43 2676.02,4.46094 h -40.56 L 2609.7,64.0898" /><path
         id="path162"
         style="fill:#232558;fill-opacity:1;fill-rule:nonzero;stroke:none"
         d="M 3003.32,215.18 V 4.46094 h -37.06 V 215.18 H 2909.8 V 250 h 149.82 v -34.82 h -56.3" /><path
         id="path164"
         style="fill:#232558;fill-opacity:1;fill-rule:nonzero;stroke:none"
         d="m 3346.67,127.879 c 0,-27.149 9.12,-49.4806 27.35,-66.9806 18.14,-17.4765 39.08,-26.2265 62.83,-26.2265 25.76,0 47.5,8.9062 65.2,26.7187 17.71,18.0313 26.56,39.9614 26.56,65.8394 0,26.192 -8.75,48.149 -26.24,65.84 -17.39,17.809 -38.91,26.719 -64.57,26.719 -25.55,0 -47.13,-8.91 -64.73,-26.719 -17.6,-17.601 -26.4,-39.332 -26.4,-65.191 z m -37.37,0.461 c 0,34.582 12.66,64.262 38,89.07 25.24,24.801 55.56,37.199 90.98,37.199 34.98,0 64.99,-12.5 90.01,-37.519 25.13,-25.008 37.7,-55.07 37.7,-90.168 0,-35.3126 -12.62,-65.2736 -37.86,-89.8634 C 3502.79,12.3516 3472.21,0 3436.37,0 c -31.7,0 -60.17,10.9805 -85.4,32.9219 -27.79,24.2695 -41.67,56.0898 -41.67,95.4181" /><path
         id="path166"
         style="fill:#232558;fill-opacity:1;fill-rule:nonzero;stroke:none"
         d="m 3878.48,137.25 h 11.77 c 35.09,0 52.64,13.422 52.64,40.238 0,25.133 -17.07,37.692 -51.21,37.692 h -13.2 z m 46.12,-28.141 76.03,-104.64806 h -45.34 L 3885.16,104.969 h -6.68 V 4.46094 h -37.05 V 250 h 43.41 c 32.45,0 55.87,-6.09 70.3,-18.281 15.9,-13.571 23.85,-31.481 23.85,-53.75 0,-17.399 -4.98,-32.34 -14.95,-44.86 -9.97,-12.5 -23.11,-20.507 -39.44,-24" /><path
         id="path168"
         style="fill:#232558;fill-opacity:1;fill-rule:nonzero;stroke:none"
         d="M 4315.99,110.531 4235.83,250 h 42.63 l 56.13,-98.121 56.31,98.121 h 42.62 L 4353.05,110.531 V 4.46094 h -37.06 V 110.531" /><path
         id="path170"
         style="fill:#eaf0fa;fill-opacity:1;fill-rule:nonzero;stroke:none"
         d="M 223.004,385.18 H 4442.87" /><path
         id="path172"
         style="fill:none;stroke:#f04121;stroke-width:10;stroke-linecap:butt;stroke-linejoin:miter;stroke-miterlimit:10;stroke-dasharray:none;stroke-opacity:1"
         d="M 223.004,385.18 H 4442.87" /></g></g></svg>